<svg xmlns="http://www.w3.org/2000/svg" width="1600" height="666" viewBox="0 0 1600 666" version="1.1"><path d="M 623.132 212.750 C 623.205 228.563, 623.543 248.289, 623.882 256.586 L 624.500 271.671 631.500 263.931 C 635.350 259.673, 638.376 255.664, 638.225 255.021 C 638.074 254.377, 638.374 254.113, 638.891 254.433 C 639.409 254.753, 641.488 253.099, 643.511 250.757 C 652.643 240.192, 657.535 227.243, 656.789 215.615 C 656.412 209.734, 655.623 207.075, 652.487 201.107 C 649.009 194.489, 644.634 189.587, 642.793 190.247 C 642.404 190.386, 641.504 189.724, 640.793 188.776 C 639.099 186.518, 631.761 184, 626.874 184 L 623 184 623.132 212.750 M 740.146 184.871 C 748.643 185.373, 751.268 185.896, 753.146 187.463 L 755.500 189.426 753.225 186.963 C 751.096 184.659, 750.256 184.492, 740.225 184.371 L 729.500 184.243 740.146 184.871 M 1283.034 208.250 L 1283.068 232.500 1291.148 237.924 C 1295.592 240.908, 1301.019 244.845, 1303.209 246.674 C 1305.398 248.503, 1307.897 250, 1308.761 250 C 1309.626 250, 1310.058 250.275, 1309.722 250.611 C 1309.175 251.158, 1314.132 256, 1315.240 256 C 1315.488 256, 1315.995 248.204, 1316.367 238.677 C 1317.173 218.015, 1316.167 209.255, 1312.052 201.104 C 1308.964 194.986, 1303.585 189.521, 1301.761 190.648 C 1301.161 191.019, 1300.980 190.842, 1301.348 190.245 C 1302.403 188.538, 1292.198 184, 1287.304 184 L 1283 184 1283.034 208.250 M 376.500 238 L 370.500 238.664 375.500 238.715 C 378.250 238.743, 383.425 238.437, 387 238.036 L 393.500 237.305 388 237.321 C 384.975 237.329, 379.800 237.635, 376.500 238 M 302.500 244.551 L 292.500 245.829 301.589 245.321 C 306.589 245.042, 312.214 244.451, 314.089 244.009 C 319.183 242.808, 314.382 243.032, 302.500 244.551 M 704.963 248.750 C 692.180 262.176, 689.606 265, 690.151 265 C 690.467 265, 695.329 260.050, 700.955 254 C 706.581 247.950, 711.016 243, 710.811 243 C 710.605 243, 707.974 245.588, 704.963 248.750 M 1283.214 293.115 C 1283.494 341.411, 1283.547 342.588, 1285.643 346.500 C 1286.822 348.700, 1288.268 350.393, 1288.857 350.262 C 1289.446 350.131, 1289.683 350.663, 1289.383 351.444 C 1288.806 352.949, 1294.232 356.435, 1295.373 355.293 C 1295.718 354.949, 1296 355.143, 1296 355.725 C 1296 356.307, 1297.237 357.126, 1298.750 357.545 C 1300.263 357.963, 1325.198 358.392, 1354.162 358.498 L 1406.824 358.690 1406.294 355.095 C 1404.643 343.902, 1396.684 333.896, 1386.360 330.033 C 1381.305 328.142, 1378.654 328, 1348.462 328 L 1316 328 1316 299.585 L 1316 271.170 1311.052 267.538 C 1305.061 263.140, 1299.559 258.568, 1290.084 250.115 L 1282.928 243.730 1283.214 293.115 M 387.296 257.744 C 391.583 257.932, 398.333 257.931, 402.296 257.742 C 406.258 257.552, 402.750 257.399, 394.500 257.400 C 386.250 257.401, 383.008 257.556, 387.296 257.744 M 259.201 275 C 259.173 276.375, 259.774 282.675, 260.536 289 L 261.920 300.500 261.365 291 C 260.809 281.490, 259.294 270.294, 259.201 275 M 656.235 314.250 L 656.470 345.500 656.750 314.589 L 657.029 283.679 659.765 286.089 L 662.500 288.500 660.076 285.750 C 658.742 284.238, 657.280 283, 656.826 283 C 656.372 283, 656.106 297.063, 656.235 314.250 M 397.250 287.735 C 399.863 287.941, 404.137 287.941, 406.750 287.735 C 409.363 287.529, 407.225 287.360, 402 287.360 C 396.775 287.360, 394.637 287.529, 397.250 287.735 M 907.020 294.960 C 905.909 297.138, 905 299.631, 905 300.500 C 905 302.211, 908.723 310, 909.541 310 C 909.816 310, 909.132 308.218, 908.020 306.040 C 906.909 303.862, 906 301.369, 906 300.500 C 906 299.631, 906.909 297.138, 908.020 294.960 C 909.132 292.782, 909.816 291, 909.541 291 C 909.266 291, 908.132 292.782, 907.020 294.960 M 379.128 297.862 C 382.448 303.099, 382.686 304.674, 380.250 305.311 C 378.933 305.655, 379.057 305.797, 380.750 305.884 C 383.724 306.037, 383.659 303.801, 380.535 298.470 C 379.179 296.156, 378.279 294.054, 378.535 293.798 C 378.791 293.543, 378.382 293.333, 377.628 293.333 C 376.685 293.333, 377.156 294.753, 379.128 297.862 M 313.811 305.502 C 313.640 311.828, 313.837 317.003, 314.250 317.002 C 314.663 317.001, 315 311.825, 315 305.500 C 315 299.175, 314.802 294, 314.561 294 C 314.319 294, 313.981 299.176, 313.811 305.502 M 328.098 301.980 C 327.494 304.795, 326.955 311.464, 326.900 316.799 C 326.829 323.752, 326.549 325.792, 325.914 324 C 325.156 321.863, 325.098 321.990, 325.514 324.875 C 325.781 326.731, 326 328.670, 326 329.184 C 326 329.698, 326.450 329.840, 327 329.500 C 327.568 329.149, 328.011 324.045, 328.024 317.691 C 328.038 311.536, 328.504 304.528, 329.059 302.118 C 329.615 299.708, 329.873 297.539, 329.632 297.299 C 329.392 297.059, 328.701 299.165, 328.098 301.980 M 505.053 307.053 C 504.335 311.469, 503.950 315.283, 504.196 315.529 C 504.442 315.775, 505.230 312.364, 505.947 307.947 C 506.665 303.531, 507.050 299.717, 506.804 299.471 C 506.558 299.225, 505.770 302.636, 505.053 307.053 M 482.422 323 C 482.422 334.275, 482.568 338.887, 482.746 333.250 C 482.924 327.613, 482.924 318.387, 482.746 312.750 C 482.568 307.113, 482.422 311.725, 482.422 323 M 459.672 316 C 459.975 321.225, 460.567 327.525, 460.987 330 C 462.255 337.479, 461.958 330.253, 460.494 318 L 459.120 306.500 459.672 316 M 376.872 323.750 C 375.642 325.318, 375.674 325.364, 377.173 324.192 C 378.400 323.232, 382.171 322.966, 391.330 323.192 C 398.196 323.361, 403.604 323.163, 403.348 322.750 C 403.092 322.337, 397.339 322, 390.563 322 C 380.021 322, 378.047 322.252, 376.872 323.750 M 350.320 326.492 C 350.508 328.329, 351.276 328.484, 360.243 328.492 C 366.718 328.497, 369.050 328.232, 367.231 327.698 C 365.729 327.256, 361.496 327.144, 357.823 327.448 C 352.041 327.926, 351.078 327.766, 350.631 326.250 C 350.227 324.880, 350.159 324.933, 350.320 326.492 M 379.847 327.375 C 381.609 327.886, 385.702 327.859, 389.683 327.310 L 396.500 326.369 386.664 326.434 C 379.325 326.483, 377.594 326.722, 379.847 327.375 M 371.280 348.736 C 373.909 348.943, 377.959 348.940, 380.280 348.731 C 382.601 348.521, 380.450 348.352, 375.500 348.355 C 370.550 348.358, 368.651 348.530, 371.280 348.736 M 419.500 361 C 414.726 361.655, 414.681 361.689, 418.500 361.755 C 420.700 361.794, 424.750 361.474, 427.500 361.046 C 432.215 360.312, 432.272 360.269, 428.500 360.291 C 426.300 360.304, 422.250 360.623, 419.500 361 M 808.280 360.736 C 810.909 360.943, 814.959 360.940, 817.280 360.731 C 819.601 360.521, 817.450 360.352, 812.500 360.355 C 807.550 360.358, 805.651 360.530, 808.280 360.736 M 416.500 365 L 410.500 365.664 415.500 365.723 C 418.250 365.756, 423.200 365.448, 426.500 365.038 L 432.500 364.294 427.500 364.315 C 424.750 364.327, 419.800 364.635, 416.500 365 M 497.164 373.981 C 496.485 379.086, 496.120 383.453, 496.353 383.687 C 496.952 384.286, 499.280 367.340, 498.797 365.892 C 498.579 365.237, 497.844 368.877, 497.164 373.981 M 337.500 368.511 C 331.450 369.175, 328.525 369.753, 331 369.794 C 333.475 369.835, 340.675 369.281, 347 368.563 C 353.325 367.845, 356.250 367.268, 353.500 367.280 C 350.750 367.292, 343.550 367.846, 337.500 368.511 M 487.079 373.139 C 487.036 374.041, 486.140 375.841, 485.089 377.139 C 483.345 379.294, 482.191 379.550, 471.839 380.077 L 460.500 380.654 470.185 380.827 C 475.512 380.922, 481.001 380.570, 482.383 380.045 C 485.299 378.936, 488.423 374.648, 487.673 372.782 C 487.332 371.932, 487.131 372.053, 487.079 373.139 M 452.280 374.736 C 454.909 374.943, 458.959 374.940, 461.280 374.731 C 463.601 374.521, 461.450 374.352, 456.500 374.355 C 451.550 374.358, 449.651 374.530, 452.280 374.736 M 663.160 379.184 C 660.773 379.717, 659.020 380.353, 659.264 380.597 C 659.508 380.842, 662.114 380.526, 665.054 379.895 C 668.043 379.254, 674.612 378.952, 679.950 379.210 C 685.203 379.463, 688.375 379.340, 687 378.935 C 683.423 377.882, 668.279 378.040, 663.160 379.184 M 730.110 379.396 C 727.538 380.821, 725.061 384.571, 725.087 387 C 725.096 387.825, 725.789 386.848, 726.627 384.828 C 728.399 380.560, 729.559 379.906, 737 378.979 L 742.500 378.294 737.500 378.182 C 734.750 378.121, 731.425 378.667, 730.110 379.396 M 762 379.064 C 767.775 379.474, 773.625 380.070, 775 380.388 C 776.375 380.706, 775.700 380.333, 773.500 379.560 C 771.108 378.719, 765.882 378.187, 760.500 378.236 L 751.500 378.319 762 379.064 M 821.527 378.873 C 818.409 379.541, 815.972 382.970, 816.105 386.500 C 816.148 387.641, 816.605 386.997, 817.168 385 C 817.712 383.075, 818.496 381.148, 818.911 380.718 C 819.326 380.287, 823.228 379.560, 827.582 379.101 C 834.475 378.374, 834.788 378.264, 830 378.251 C 826.975 378.243, 823.162 378.523, 821.527 378.873 M 868.500 378.992 C 871.800 379.478, 875.400 380.055, 876.500 380.274 C 878.896 380.752, 881.163 386.413, 880.394 390 C 879.995 391.864, 880.149 392.215, 880.999 391.380 C 882.462 389.944, 881.335 383.631, 879.132 380.924 C 877.829 379.322, 875.988 378.836, 870 378.513 L 862.500 378.109 868.500 378.992 M 936.500 378.900 C 939.800 379.337, 944.525 379.979, 947 380.326 C 950.814 380.862, 951.043 380.808, 948.500 379.971 C 946.850 379.428, 942.125 378.787, 938 378.545 C 930.793 378.124, 930.734 378.138, 936.500 378.900 M 1163.058 379.090 C 1157.248 380.230, 1155.356 381.182, 1160.500 380.378 C 1162.700 380.034, 1168.100 379.423, 1172.500 379.020 L 1180.500 378.287 1174 378.253 C 1170.425 378.234, 1165.501 378.611, 1163.058 379.090 M 1279 378.945 C 1283.675 379.387, 1288.850 380.040, 1290.500 380.397 C 1293.387 381.021, 1293.406 381.003, 1291 379.920 C 1289.625 379.301, 1284.450 378.648, 1279.500 378.469 L 1270.500 378.142 1279 378.945 M 384.186 380.748 C 393.363 380.913, 408.663 380.913, 418.186 380.749 C 427.709 380.584, 420.200 380.449, 401.500 380.449 C 382.800 380.449, 375.009 380.583, 384.186 380.748 M 381 383.563 C 385.125 384.284, 389.850 384.849, 391.500 384.818 C 393.150 384.786, 390.900 384.173, 386.500 383.455 C 382.100 382.738, 377.375 382.173, 376 382.201 C 374.625 382.229, 376.875 382.842, 381 383.563 M 1022.500 402.893 C 1022.500 412.255, 1022.806 419.147, 1023.180 418.208 C 1024.042 416.041, 1024.018 391.274, 1023.150 388.185 C 1022.793 386.911, 1022.500 393.530, 1022.500 402.893 M 447 391.042 C 450.025 391.460, 454.300 391.783, 456.500 391.760 C 459.957 391.724, 459.753 391.615, 455 390.958 C 451.975 390.540, 447.700 390.217, 445.500 390.240 C 442.043 390.276, 442.247 390.385, 447 391.042 M 836.209 406.750 L 836 417 846.750 417.014 C 852.663 417.021, 858.625 417.255, 860 417.534 C 862.179 417.976, 862.243 417.919, 860.500 417.091 C 859.400 416.568, 853.679 416.109, 847.786 416.070 L 837.072 416 836.746 406.250 L 836.419 396.500 836.209 406.750 M 917.476 425.417 C 917.497 450.259, 917.711 454.392, 919 454.743 C 920.094 455.042, 920.166 454.915, 919.266 454.277 C 918.349 453.626, 917.957 446.098, 917.742 424.951 L 917.452 396.500 917.476 425.417 M 1315.780 410.756 C 1316.104 416.362, 1315.906 419, 1315.160 419 C 1314.544 419, 1314.345 419.736, 1314.706 420.677 C 1315.282 422.177, 1315.429 422.151, 1316.105 420.427 C 1317.093 417.904, 1317.077 407.057, 1316.081 404.506 C 1315.653 403.409, 1315.517 406.221, 1315.780 410.756 M 745.385 416 C 745.385 422.875, 745.545 425.688, 745.740 422.250 C 745.936 418.813, 745.936 413.188, 745.740 409.750 C 745.545 406.313, 745.385 409.125, 745.385 416 M 778.750 410.750 C 779.325 416.730, 777.303 421.199, 772.701 424.122 C 769.962 425.861, 769.861 426.053, 772 425.453 C 774.985 424.616, 774.241 425.285, 777.384 420.610 C 780.048 416.649, 780.910 409.984, 779.123 407.165 C 778.628 406.383, 778.473 407.867, 778.750 410.750 M 985.589 414 C 987.040 420.536, 987.080 430.715, 985.672 435.248 C 984.861 437.860, 984.547 439.780, 984.975 439.515 C 987.819 437.757, 988.772 422.134, 986.440 415.500 C 985.667 413.300, 985.284 412.625, 985.589 414 M 815.436 441.702 C 815.487 462.782, 815.773 468.157, 816.897 469.202 C 818.057 470.280, 818.142 470.246, 817.397 469 C 816.904 468.175, 816.246 455.800, 815.936 441.500 L 815.371 415.500 815.436 441.702 M 965.500 426 C 965.500 430.909, 965.806 434.155, 966.180 433.213 C 966.554 432.271, 966.859 429.025, 966.859 426 C 966.859 422.975, 966.554 419.729, 966.180 418.787 C 965.806 417.845, 965.500 421.091, 965.500 426 M 1023.365 431.500 C 1023.368 437, 1023.536 439.122, 1023.738 436.216 C 1023.941 433.311, 1023.939 428.811, 1023.734 426.216 C 1023.528 423.622, 1023.363 426, 1023.365 431.500 M 836.667 434.667 C 836.300 435.033, 836 439.758, 836 445.167 L 836 455 848.853 455 C 855.923 455, 864.585 455.203, 868.103 455.450 C 874.270 455.884, 874.321 455.869, 869.500 455.038 C 866.750 454.563, 858.283 454.136, 850.684 454.088 L 836.867 454 837.184 443.998 C 837.358 438.497, 837.462 433.997, 837.417 433.998 C 837.371 433.999, 837.033 434.300, 836.667 434.667 M 1023.619 450.872 C 1023.229 456.026, 1023.112 460.445, 1023.359 460.693 C 1023.987 461.320, 1025.324 444.469, 1024.776 442.834 C 1024.530 442.100, 1024.010 445.717, 1023.619 450.872 M 745.370 456 C 745.370 461.775, 745.535 464.137, 745.737 461.250 C 745.939 458.363, 745.939 453.637, 745.737 450.750 C 745.535 447.863, 745.370 450.225, 745.370 456 M 666.186 454.150 C 669.268 455.017, 683.052 455.038, 685.206 454.180 C 686.145 453.806, 681.729 453.500, 675.393 453.500 C 669.056 453.500, 664.914 453.793, 666.186 454.150 M 1178.500 454.030 C 1176.300 454.470, 1172.475 454.655, 1170 454.440 L 1165.500 454.050 1169.823 454.985 C 1173.764 455.838, 1183.459 454.875, 1184.840 453.493 C 1185.473 452.861, 1183.518 453.026, 1178.500 454.030 M 1360.299 454.064 C 1363.434 455.964, 1372.159 456.243, 1377 454.596 C 1380.452 453.422, 1380.685 453.233, 1378 453.781 C 1373.415 454.719, 1365.271 454.696, 1361.500 453.736 C 1359.109 453.128, 1358.865 453.194, 1360.299 454.064 M 669.602 473.292 C 672.957 473.756, 678.357 473.753, 681.602 473.285 C 686.778 472.540, 686.031 472.436, 675.500 472.442 C 664.814 472.448, 664.168 472.541, 669.602 473.292 M 849 473 L 826.500 473.558 849 473.661 C 861.375 473.717, 872.850 473.420, 874.500 473 L 877.500 472.237 874.500 472.339 C 872.850 472.396, 861.375 472.693, 849 473 M 903.814 473.180 C 905.953 474.042, 930.712 474.016, 938 473.144 C 941.056 472.778, 934.308 472.489, 922.814 472.493 C 911.436 472.497, 902.886 472.806, 903.814 473.180 M 1168.784 472.738 C 1171.689 472.941, 1176.189 472.939, 1178.784 472.734 C 1181.378 472.528, 1179 472.363, 1173.500 472.365 C 1168 472.368, 1165.878 472.536, 1168.784 472.738 M 1360.557 473.132 C 1362.176 473.479, 1366.425 473.763, 1370 473.763 C 1373.575 473.763, 1377.824 473.479, 1379.443 473.132 C 1381.062 472.784, 1376.813 472.500, 1370 472.500 C 1363.187 472.500, 1358.938 472.784, 1360.557 473.132" stroke="none" fill="#6e6f71" fill-rule="evenodd"/><path d="M 559.250 159.496 C 558.260 160.621, 558 199.362, 558 346.029 C 558 505.128, 558.201 531.344, 559.429 532.571 C 561.285 534.427, 561.997 534.373, 563.608 532.250 C 564.701 530.810, 564.942 497.533, 564.968 344.250 L 565 158 562.750 158.038 C 561.513 158.059, 559.938 158.715, 559.250 159.496 M 883 185 C 883 185.550, 882.518 186, 881.929 186 C 880.259 186, 878.402 188.261, 877.667 191.190 C 877.299 192.659, 876.371 194.486, 875.606 195.251 C 874.841 196.016, 872.983 199.085, 871.476 202.071 C 869.970 205.057, 868.459 207.725, 868.119 208 C 867.778 208.275, 867.352 209.175, 867.171 210 C 866.990 210.825, 866.238 212.175, 865.500 213 C 864.762 213.825, 864.010 215.157, 863.829 215.961 C 863.648 216.764, 862.712 218.312, 861.750 219.400 C 860.788 220.487, 860 221.967, 860 222.689 C 860 223.410, 859.605 224, 859.121 224 C 858.638 224, 857.683 225.350, 857 227 C 856.317 228.650, 855.362 230, 854.879 230 C 854.395 230, 854 230.660, 854 231.466 C 854 233.981, 850.695 240, 849.315 240 C 848.592 240, 848 240.693, 848 241.540 C 848 243.207, 844.191 251.183, 843.005 252 C 842.606 252.275, 841.478 254.075, 840.500 256 C 839.522 257.925, 838.403 259.725, 838.015 260 C 837.282 260.519, 835.718 263.317, 831.867 271 C 830.626 273.475, 829.319 275.725, 828.963 276 C 828.606 276.275, 827.123 278.890, 825.668 281.811 C 824.212 284.731, 822.342 287.801, 821.511 288.632 C 820.680 289.463, 820 291.011, 820 292.071 C 820 293.132, 819.527 294, 818.948 294 C 818.369 294, 817.425 295.350, 816.850 297 C 816.275 298.650, 815.434 300, 814.982 300 C 814.172 300, 812.438 305.787, 812.810 307.250 C 812.914 307.663, 812.325 308, 811.500 308 C 810.675 308, 810 308.353, 810 308.784 C 810 309.215, 808.434 311.999, 806.519 314.970 C 804.605 317.941, 803.228 320.561, 803.459 320.793 C 803.690 321.024, 803.007 322.150, 801.940 323.295 C 800.873 324.440, 800 326.206, 800 327.220 C 800 328.233, 799.328 329.321, 798.506 329.636 C 797.684 329.952, 797.260 330.612, 797.565 331.105 C 797.869 331.597, 797.641 332, 797.059 332 C 796.477 332, 796 332.852, 796 333.893 C 796 334.934, 795.288 336.059, 794.417 336.394 C 793.546 336.728, 793.018 337.555, 793.244 338.231 C 793.469 338.907, 792.605 340.591, 791.324 341.973 C 790.043 343.354, 788.475 346.063, 787.840 347.992 C 787.205 349.922, 786.126 351.950, 785.444 352.500 C 784.761 353.050, 783.901 354.512, 783.534 355.749 C 782.413 359.524, 786.050 360, 816 360 C 841.345 360, 850.585 359.252, 848.686 357.353 C 848.361 357.028, 848.753 356.104, 849.557 355.300 C 850.361 354.496, 850.763 353.425, 850.450 352.919 C 850.138 352.414, 850.385 352, 851 352 C 851.615 352, 851.864 351.588, 851.553 351.085 C 851.242 350.582, 851.407 350.020, 851.919 349.835 C 852.431 349.651, 852.996 348.836, 853.175 348.024 C 853.483 346.623, 853.886 346.007, 856.690 342.641 C 857.344 341.856, 857.607 340.940, 857.273 340.607 C 856.940 340.273, 857.137 340, 857.712 340 C 858.287 340, 859.323 338.636, 860.013 336.968 C 860.704 335.300, 861.483 334.150, 861.744 334.411 C 862.340 335.007, 867 326.341, 867 324.636 C 867 323.943, 867.788 322.492, 868.750 321.411 C 870.492 319.454, 874.146 312.869, 874.352 311.316 C 874.412 310.867, 875.707 309.196, 877.230 307.602 C 879.696 305.022, 880.494 303.128, 880.118 300.750 C 880.053 300.337, 880.702 300, 881.559 300 C 882.416 300, 882.862 299.586, 882.550 299.081 C 882.237 298.575, 882.693 297.450, 883.562 296.581 C 884.432 295.711, 884.816 295, 884.416 295 C 884.017 295, 884.342 294.212, 885.138 293.250 C 885.935 292.287, 887.205 290.262, 887.962 288.750 C 888.719 287.238, 889.712 286, 890.169 286 C 890.626 286, 891 285.265, 891 284.367 C 891 283.469, 891.969 281.894, 893.153 280.867 C 894.337 279.840, 894.942 279, 894.498 279 C 894.054 279, 894.403 278.212, 895.274 277.250 C 896.144 276.288, 897.773 273.363, 898.893 270.750 C 900.013 268.137, 901.365 266, 901.897 266 C 902.827 266, 904.035 263.409, 903.921 261.659 C 903.891 261.196, 904.502 260.296, 905.279 259.659 C 906.056 259.022, 907.280 256.925, 908 255 C 908.720 253.075, 909.914 251.001, 910.654 250.390 C 911.394 249.780, 912.098 248.092, 912.218 246.640 C 912.386 244.601, 912.969 244, 914.777 244 C 916.083 244, 916.845 244.442, 916.500 245 C 916.160 245.550, 916.304 246, 916.820 246 C 917.335 246, 918.317 247.350, 919 249 C 919.683 250.650, 920.638 252, 921.121 252 C 921.605 252, 922 252.900, 922 254 C 922 255.145, 922.667 256, 923.559 256 C 924.416 256, 924.862 256.414, 924.550 256.919 C 924.237 257.425, 924.639 258.496, 925.443 259.300 C 926.247 260.104, 926.626 261.040, 926.286 261.381 C 925.945 261.721, 926.139 262, 926.717 262 C 927.294 262, 928.031 262.788, 928.354 263.750 C 928.678 264.712, 929.387 266.175, 929.931 267 C 930.475 267.825, 932.105 271.026, 933.555 274.113 C 935.004 277.200, 937.254 280.873, 938.554 282.275 C 939.854 283.677, 941.210 285.989, 941.567 287.412 C 941.925 288.835, 942.618 290, 943.108 290 C 943.599 290, 944 290.652, 944 291.448 C 944 292.245, 945.125 294.111, 946.500 295.595 C 947.875 297.078, 949 298.867, 949 299.569 C 949 300.272, 950.237 302.324, 951.750 304.129 C 953.263 305.934, 953.904 307.046, 953.176 306.601 C 952.080 305.930, 952.078 306.152, 953.167 307.895 C 953.890 309.053, 954.849 310, 955.300 310 C 955.750 310, 955.873 310.397, 955.573 310.882 C 955.273 311.368, 955.963 312.955, 957.107 314.409 C 958.251 315.864, 959.534 318.279, 959.957 319.777 C 960.380 321.275, 961.205 322.399, 961.789 322.275 C 962.374 322.151, 963.138 323.351, 963.487 324.942 C 963.837 326.534, 964.995 328.841, 966.061 330.071 C 967.128 331.300, 968 332.896, 968 333.618 C 968 334.339, 968.883 335.402, 969.963 335.980 C 971.116 336.598, 971.691 337.643, 971.356 338.515 C 970.898 339.709, 968.539 340, 959.334 340 C 951.954 340, 948.102 339.644, 948.500 339 C 948.840 338.450, 948.672 338, 948.126 338 C 947.581 338, 946.827 337.030, 946.450 335.844 C 946.074 334.658, 944.581 332.559, 943.133 331.180 C 941.685 329.801, 941.175 329.038, 942 329.484 C 942.825 329.929, 942.487 329.310, 941.250 328.108 C 940.013 326.906, 938.966 325.602, 938.923 325.211 C 938.630 322.482, 937.888 320.729, 935.603 317.366 C 934.171 315.259, 933 313.147, 933 312.672 C 933 312.197, 931.989 310.389, 930.754 308.654 C 929.519 306.919, 928.660 305.500, 928.846 305.500 C 929.033 305.500, 928.621 304.262, 927.932 302.750 C 927.243 301.238, 926.356 300, 925.961 300 C 925.566 300, 924.683 298.650, 924 297 C 923.317 295.350, 922.335 294, 921.820 294 C 921.304 294, 921.160 293.550, 921.500 293 C 921.840 292.450, 921.641 292, 921.059 292 C 920.477 292, 920 291.425, 920 290.722 C 920 288.885, 916.124 285.829, 914.254 286.192 C 913.380 286.361, 912.458 287.125, 912.203 287.889 C 911.922 288.732, 912.185 289.004, 912.870 288.580 C 913.492 288.196, 914 288.359, 914 288.941 C 914 289.523, 913.149 290, 912.109 290 C 910.818 290, 909.675 291.350, 908.509 294.250 C 905.861 300.841, 905.899 301.741, 909.050 307.084 C 910.672 309.836, 912 312.758, 912 313.576 C 912 314.395, 913.013 315.439, 914.250 315.897 C 915.487 316.355, 916.388 317.015, 916.250 317.365 C 915.524 319.209, 916.212 321.938, 917.889 323.872 C 918.928 325.070, 920.333 327.389, 921.010 329.025 C 921.688 330.661, 922.863 332, 923.621 332 C 924.380 332, 924.926 332.337, 924.836 332.750 C 924.602 333.822, 926.194 339.404, 926.904 340 C 927.863 340.804, 931.042 346.265, 932.289 349.250 C 932.921 350.762, 933.790 352, 934.219 352 C 934.649 352, 935 352.900, 935 354 C 935 355.200, 935.667 356, 936.667 356 C 937.583 356, 938.055 356.279, 937.714 356.619 C 937.374 356.960, 937.717 357.860, 938.476 358.619 C 939.593 359.736, 945.924 360, 971.536 360 C 1001.303 360, 1003.172 359.894, 1002.521 358.250 C 1002.140 357.288, 1001.652 355.633, 1001.437 354.573 C 1001.223 353.514, 1000.699 352.389, 1000.273 352.073 C 999.848 351.758, 999.354 350.825, 999.175 350 C 998.996 349.175, 998.431 348.349, 997.919 348.165 C 997.407 347.980, 997.242 347.418, 997.553 346.915 C 997.864 346.412, 997.615 346, 997 346 C 996.385 346, 996.160 345.550, 996.500 345 C 996.840 344.450, 996.615 344, 996 344 C 995.385 344, 995.151 343.565, 995.480 343.033 C 995.809 342.501, 995.205 341.520, 994.139 340.854 C 993.072 340.188, 992.426 339.053, 992.704 338.330 C 992.981 337.608, 992.488 336.741, 991.609 336.404 C 990.731 336.066, 990.260 335.388, 990.565 334.895 C 990.869 334.403, 990.672 334, 990.126 334 C 989.581 334, 988.850 333.103, 988.502 332.006 C 988.154 330.909, 987.336 329.429, 986.684 328.717 C 984.785 326.641, 983 323.151, 983 321.514 C 983 320.681, 982.629 320, 982.176 320 C 981.722 320, 980.088 317.263, 978.543 313.918 C 976.999 310.573, 975.122 307.600, 974.373 307.313 C 973.624 307.026, 973.260 306.388, 973.565 305.895 C 973.869 305.403, 973.690 305, 973.167 305 C 972.645 305, 971.934 303.875, 971.589 302.500 C 971.244 301.125, 970.575 300, 970.102 300 C 969.629 300, 968.683 298.650, 968 297 C 967.317 295.350, 966.335 294, 965.820 294 C 965.304 294, 965.129 293.601, 965.430 293.113 C 965.731 292.626, 965.308 291.671, 964.489 290.991 C 963.670 290.311, 963 288.910, 963 287.878 C 963 286.845, 962.523 286, 961.941 286 C 961.359 286, 961.160 285.550, 961.500 285 C 961.840 284.450, 961.641 284, 961.059 284 C 960.477 284, 960 283.410, 960 282.689 C 960 281.967, 958.987 280.290, 957.750 278.962 C 956.513 277.634, 955.612 276.424, 955.750 276.273 C 956.636 275.304, 955.875 274.026, 950.956 268.226 C 950.362 267.525, 949.703 266.055, 949.492 264.958 C 949.281 263.862, 948.409 262.266, 947.554 261.411 C 946.699 260.556, 946 258.989, 946 257.929 C 946 256.868, 945.550 256, 945 256 C 944.450 256, 944 255.425, 944 254.722 C 944 254.019, 943.100 252.674, 942 251.732 C 940.900 250.790, 940 249.410, 940 248.665 C 940 247.920, 939.152 246.542, 938.115 245.604 C 937.078 244.666, 935.985 242.677, 935.687 241.185 C 935.389 239.693, 934.225 237.413, 933.102 236.118 C 931.979 234.822, 930.791 232.916, 930.462 231.881 C 930.134 230.847, 929.419 230, 928.874 230 C 928.328 230, 928.127 229.603, 928.427 229.118 C 928.727 228.632, 928.147 227.170, 927.137 225.868 C 926.127 224.565, 924.166 221.475, 922.779 219 C 917.269 209.170, 916.442 208.012, 914.921 208.006 C 914.002 208.003, 912.363 210.090, 911 213 C 909.712 215.750, 908.258 218, 907.770 218 C 907.282 218, 907.160 218.450, 907.500 219 C 907.840 219.550, 907.648 220, 907.072 220 C 906.497 220, 905.345 221.463, 904.513 223.250 C 903.680 225.037, 901.441 228.975, 899.538 232 C 897.635 235.025, 896.060 238.063, 896.039 238.750 C 896.018 239.438, 895.550 240, 895 240 C 894.450 240, 894 240.900, 894 242 C 894 243.100, 893.583 244, 893.072 244 C 892.562 244, 891.351 245.800, 890.380 248 C 889.409 250.200, 888.289 252, 887.890 252 C 887.492 252, 886.355 254.137, 885.366 256.750 C 884.376 259.363, 882.763 262.372, 881.783 263.439 C 880.802 264.505, 880 265.967, 880 266.689 C 880 267.410, 879.602 268, 879.117 268 C 878.332 268, 877.417 269.995, 876.489 273.730 C 876.320 274.407, 875.496 275.647, 874.657 276.486 C 873.818 277.325, 872.846 278.909, 872.498 280.006 C 872.150 281.103, 871.419 282, 870.874 282 C 870.328 282, 870.160 282.450, 870.500 283 C 870.840 283.550, 870.685 284, 870.157 284 C 869.179 284, 866.576 289.821, 866.882 291.324 C 866.974 291.778, 866.604 291.873, 866.058 291.536 C 865.513 291.199, 863.644 293.753, 861.905 297.212 C 860.165 300.670, 858.312 303.775, 857.786 304.112 C 857.260 304.448, 856.862 305.123, 856.903 305.612 C 857.046 307.342, 855.852 310, 854.933 310 C 854.420 310, 854 310.590, 854 311.311 C 854 312.033, 853.082 313.608, 851.961 314.811 C 850.840 316.015, 850.277 317.007, 850.711 317.015 C 851.145 317.024, 850.996 317.361, 850.379 317.765 C 849.762 318.169, 847.792 321.425, 846 325 C 844.208 328.575, 842.413 331.725, 842.011 332 C 840.805 332.824, 838.040 338.706, 838.596 339.263 C 838.880 339.547, 833.674 339.850, 827.026 339.936 L 814.939 340.092 815.636 337.314 C 816.020 335.786, 816.333 333.965, 816.333 333.268 C 816.333 332.571, 816.735 332, 817.226 332 C 817.716 332, 817.864 331.588, 817.553 331.085 C 817.242 330.582, 817.407 330.020, 817.919 329.835 C 818.431 329.651, 818.996 328.862, 819.175 328.083 C 819.354 327.304, 820.288 325.842, 821.250 324.833 C 822.212 323.825, 823 322.325, 823 321.500 C 823 320.675, 823.424 320, 823.943 320 C 824.461 320, 824.710 319.088, 824.495 317.973 C 824.280 316.859, 824.512 316.198, 825.010 316.506 C 825.508 316.814, 826.621 315.701, 827.483 314.033 C 828.346 312.365, 828.746 311, 828.373 311 C 827.999 311, 828.663 310.160, 829.847 309.133 C 831.031 308.106, 832 306.579, 832 305.740 C 832 304.901, 832.667 303.958, 833.483 303.645 C 834.299 303.332, 834.720 302.433, 834.418 301.648 C 834.117 300.863, 834.912 299.138, 836.185 297.815 C 837.458 296.492, 838.646 294.755, 838.825 293.955 C 839.004 293.155, 839.569 292.349, 840.081 292.165 C 840.593 291.980, 840.758 291.418, 840.447 290.915 C 840.136 290.412, 840.307 290, 840.827 290 C 841.845 290, 845.332 283.272, 845.333 281.306 C 845.333 280.649, 845.716 280.199, 846.185 280.306 C 846.653 280.413, 848.040 278.700, 849.268 276.500 C 850.496 274.300, 851.725 272.275, 852 272 C 852.631 271.369, 854.894 267.479, 857.116 263.207 C 858.058 261.396, 859.992 258.388, 861.414 256.524 C 862.836 254.659, 864 252.484, 864 251.689 C 864 250.895, 864.670 249.689, 865.489 249.009 C 866.308 248.329, 866.775 247.445, 866.527 247.044 C 866.103 246.357, 871.119 237.835, 874.473 233.547 C 875.313 232.472, 876 231.079, 876 230.452 C 876 229.824, 876.891 228.503, 877.980 227.518 C 879.070 226.532, 880.244 224.216, 880.590 222.371 C 880.936 220.527, 881.571 219.235, 882 219.500 C 882.429 219.765, 883.544 218.374, 884.476 216.409 C 885.409 214.444, 887.258 211.235, 888.586 209.278 C 889.914 207.322, 891 204.909, 891 203.917 C 891 202.925, 891.808 201.525, 892.796 200.807 C 894.453 199.601, 898 193.208, 898 191.428 C 898 191.004, 898.686 189.900, 899.524 188.973 C 900.362 188.047, 900.764 186.549, 900.417 185.645 C 899.901 184.299, 898.259 184, 891.393 184 C 886.464 184, 883 184.413, 883 185 M 1145.256 185.416 C 1144.022 186.110, 1143.309 186.976, 1143.673 187.339 C 1144.036 187.703, 1143.508 188, 1142.500 188 C 1141.492 188, 1140.945 188.279, 1141.286 188.619 C 1141.626 188.960, 1141.247 189.896, 1140.443 190.700 C 1139.639 191.504, 1139.244 192.586, 1139.565 193.105 C 1139.886 193.625, 1139.553 193.926, 1138.824 193.775 C 1138.096 193.624, 1137.612 194.063, 1137.750 194.750 C 1137.888 195.438, 1137.550 196, 1137 196 C 1136.450 196, 1136 196.868, 1136 197.929 C 1136 198.989, 1135.401 200.456, 1134.669 201.188 C 1133.936 201.921, 1133.028 203.753, 1132.650 205.260 C 1132.271 206.767, 1131.295 208, 1130.481 208 C 1129.666 208, 1129 208.868, 1129 209.929 C 1129 210.989, 1128.438 212.463, 1127.750 213.202 C 1127.063 213.942, 1126.351 215.208, 1126.170 216.014 C 1125.988 216.821, 1125.486 217.710, 1125.055 217.991 C 1124.623 218.271, 1123.952 219.519, 1123.563 220.765 C 1123.174 222.010, 1122.538 222.833, 1122.150 222.593 C 1121.762 222.353, 1119.683 225.609, 1117.530 229.828 C 1115.376 234.048, 1113.139 237.831, 1112.557 238.235 C 1111.903 238.689, 1111.882 238.981, 1112.500 239 C 1113.069 239.017, 1113.020 239.347, 1112.384 239.765 C 1111.771 240.169, 1110.256 242.497, 1109.018 244.937 C 1107.781 247.378, 1106.145 249.997, 1105.384 250.759 C 1104.623 251.520, 1104 252.973, 1104 253.988 C 1104 255.003, 1103.546 255.985, 1102.990 256.170 C 1102.435 256.355, 1101.774 257.578, 1101.522 258.887 C 1101.270 260.196, 1100.142 261.913, 1099.015 262.702 C 1097.888 263.491, 1097.203 264.520, 1097.492 264.988 C 1097.782 265.456, 1097.426 266.438, 1096.703 267.169 C 1095.980 267.901, 1094.513 270.075, 1093.444 272 C 1092.375 273.925, 1091.220 275.725, 1090.877 276 C 1090.535 276.275, 1088.565 279.875, 1086.500 284 C 1084.435 288.125, 1082.415 291.725, 1082.012 292 C 1081.609 292.275, 1080.487 294.075, 1079.519 296 C 1078.551 297.925, 1077.094 300.259, 1076.281 301.187 C 1075.469 302.115, 1075.083 303.325, 1075.423 303.876 C 1075.764 304.426, 1075.415 305.242, 1074.648 305.689 C 1073.881 306.135, 1072.023 308.943, 1070.519 311.929 C 1069.015 314.915, 1067.158 317.985, 1066.392 318.750 C 1065.627 319.516, 1064.966 320.448, 1064.923 320.821 C 1064.618 323.532, 1063.908 325.226, 1061.853 328.151 C 1060.559 329.993, 1059.050 331.831, 1058.500 332.235 C 1057.950 332.639, 1057.870 332.976, 1058.321 332.985 C 1058.773 332.993, 1058.436 333.707, 1057.571 334.571 C 1056.707 335.436, 1056 337.011, 1056 338.071 C 1056 339.132, 1055.605 340, 1055.121 340 C 1054.638 340, 1053.683 341.350, 1053 343 C 1052.317 344.650, 1051.392 346, 1050.946 346 C 1050.213 346, 1048.451 350.099, 1048.889 350.786 C 1048.989 350.943, 1048.380 351.762, 1047.536 352.607 C 1046.691 353.452, 1046 355.011, 1046 356.071 C 1046 357.719, 1046.728 358, 1051 358 C 1053.874 358, 1056 358.453, 1056 359.066 C 1056 360.232, 1098.965 359.728, 1106.797 358.471 C 1110.511 357.875, 1111.172 357.389, 1111.672 354.890 C 1111.990 353.301, 1112.575 352, 1112.973 352 C 1113.371 352, 1114.496 350.227, 1115.473 348.059 C 1116.451 345.891, 1117.869 343.880, 1118.625 343.590 C 1119.381 343.300, 1120 342.429, 1120 341.654 C 1120 340.879, 1120.575 339.768, 1121.277 339.185 C 1121.979 338.603, 1122.650 336.956, 1122.769 335.526 C 1122.887 334.095, 1124.112 331.797, 1125.492 330.417 C 1126.871 329.038, 1128 327.548, 1128 327.108 C 1128 326.667, 1128.915 325.251, 1130.033 323.961 C 1131.152 322.672, 1131.803 320.929, 1131.481 320.089 C 1131.158 319.249, 1131.197 318.863, 1131.566 319.233 C 1132.681 320.348, 1134.749 317.568, 1136.061 313.192 C 1136.741 310.922, 1137.644 309.280, 1138.067 309.541 C 1138.491 309.803, 1139.135 308.664, 1139.498 307.009 C 1139.862 305.354, 1140.742 304, 1141.454 304 C 1142.167 304, 1143.009 302.704, 1143.326 301.121 C 1143.643 299.537, 1144.599 297.544, 1145.451 296.692 C 1146.303 295.840, 1147 294.629, 1147 294 C 1147 293.371, 1147.679 292.178, 1148.509 291.348 C 1149.339 290.518, 1149.763 289.425, 1149.450 288.919 C 1149.138 288.414, 1149.584 288, 1150.441 288 C 1151.333 288, 1152 287.145, 1152 286 C 1152 284.900, 1152.477 284, 1153.059 284 C 1153.641 284, 1153.840 283.550, 1153.500 283 C 1153.160 282.450, 1153.304 282, 1153.820 282 C 1154.335 282, 1155.317 280.650, 1156 279 C 1156.683 277.350, 1157.638 276, 1158.121 276 C 1158.605 276, 1159 275.100, 1159 274 C 1159 272.900, 1159.444 272, 1159.987 272 C 1160.529 272, 1161.672 270.328, 1162.525 268.285 C 1163.379 266.242, 1164.623 264.224, 1165.289 263.800 C 1166.209 263.216, 1166.186 263.027, 1165.191 263.015 C 1164.471 263.007, 1164.165 262.543, 1164.510 261.984 C 1164.856 261.425, 1165.562 261.230, 1166.081 261.550 C 1166.599 261.870, 1167.294 260.781, 1167.624 259.130 C 1167.954 257.479, 1168.849 255.888, 1169.612 255.595 C 1170.375 255.302, 1171 254.522, 1171 253.860 C 1171 253.199, 1171.640 251.947, 1172.421 251.079 C 1173.203 250.210, 1173.990 248.836, 1174.171 248.024 C 1175.198 243.412, 1179.261 242.803, 1181 247 C 1181.683 248.650, 1182.638 250, 1183.121 250 C 1183.605 250, 1183.911 250.338, 1183.802 250.750 C 1183.430 252.157, 1185.132 256, 1186.126 256 C 1186.672 256, 1186.840 256.450, 1186.500 257 C 1186.160 257.550, 1186.385 258, 1187 258 C 1187.615 258, 1187.840 258.450, 1187.500 259 C 1187.160 259.550, 1187.304 260, 1187.820 260 C 1188.335 260, 1189.303 261.318, 1189.970 262.928 C 1190.637 264.539, 1191.817 266.100, 1192.592 266.397 C 1193.366 266.694, 1194 268.076, 1194 269.469 C 1194 271.052, 1194.562 272, 1195.500 272 C 1196.826 272, 1197.418 273.131, 1197.150 275.154 C 1197.103 275.514, 1197.725 276.356, 1198.532 277.027 C 1199.339 277.697, 1200 279.090, 1200 280.122 C 1200 281.155, 1200.477 282, 1201.059 282 C 1201.641 282, 1201.840 282.450, 1201.500 283 C 1201.160 283.550, 1201.324 284, 1201.863 284 C 1202.403 284, 1203.364 285.572, 1203.997 287.492 C 1204.631 289.413, 1205.832 291.366, 1206.665 291.832 C 1207.498 292.298, 1208.139 292.977, 1208.090 293.340 C 1207.826 295.282, 1208.202 296.111, 1210.295 298.205 C 1211.558 299.467, 1212.659 300.950, 1212.742 301.500 C 1213.141 304.149, 1217.426 311.878, 1218.398 311.701 C 1219.004 311.590, 1219.376 312.096, 1219.225 312.824 C 1219.074 313.553, 1219.381 313.883, 1219.906 313.558 C 1220.432 313.233, 1221.144 313.425, 1221.490 313.984 C 1221.835 314.543, 1221.682 315, 1221.150 315 C 1220.030 315, 1223.549 322.692, 1225.612 324.755 C 1226.375 325.518, 1227 326.529, 1227 327 C 1227 327.471, 1227.699 328.556, 1228.554 329.411 C 1229.409 330.266, 1230.277 331.844, 1230.484 332.918 C 1230.691 333.992, 1231.342 335.770, 1231.930 336.869 C 1232.519 337.969, 1233 339.123, 1233 339.434 C 1233 339.745, 1228.456 340, 1222.901 340 L 1212.802 340 1209.898 336.750 C 1205.378 331.692, 1205.080 331.253, 1205.727 330.607 C 1206.060 330.273, 1205.733 330, 1205 330 C 1204.267 330, 1203.945 329.721, 1204.286 329.381 C 1204.626 329.040, 1204.364 328.156, 1203.702 327.416 C 1200.637 323.984, 1200 322.983, 1200 321.599 C 1200 320.782, 1199.068 319.461, 1197.930 318.663 C 1196.422 317.607, 1196.218 317.070, 1197.180 316.686 C 1197.991 316.361, 1197.761 316.127, 1196.583 316.079 C 1195.529 316.036, 1194.941 315.726, 1195.276 315.390 C 1195.612 315.055, 1195.012 313.149, 1193.943 311.155 C 1192.874 309.161, 1192 306.976, 1192 306.300 C 1192 304.743, 1184.933 293.253, 1182.254 290.453 C 1181.569 289.737, 1180.567 287.992, 1180.029 286.575 C 1179.490 285.159, 1178.619 284, 1178.093 284 C 1176.891 284, 1173.490 288.766, 1172.564 291.750 C 1172.180 292.988, 1171.371 294, 1170.766 294 C 1170.161 294, 1169.945 294.279, 1170.286 294.619 C 1170.626 294.960, 1170.251 295.892, 1169.452 296.690 C 1167.654 298.489, 1167.580 301.427, 1169.289 303.179 C 1171.002 304.934, 1175.142 313, 1174.331 313 C 1173.981 313, 1174.550 313.788, 1175.597 314.750 C 1176.644 315.712, 1177.646 317.175, 1177.825 318 C 1178.004 318.825, 1178.566 319.650, 1179.075 319.833 C 1179.584 320.017, 1180 320.864, 1180 321.716 C 1180 322.568, 1180.787 323.993, 1181.750 324.883 C 1182.713 325.772, 1183.650 327.400, 1183.834 328.500 C 1184.017 329.600, 1184.580 330.928, 1185.084 331.450 C 1185.588 331.973, 1186.007 333.323, 1186.015 334.450 C 1186.028 336.140, 1186.201 336.237, 1187 335 C 1187.793 333.773, 1187.972 333.886, 1187.985 335.624 C 1188.008 338.898, 1194.936 350.729, 1196.131 349.536 C 1196.334 349.334, 1196.567 350.282, 1196.648 351.642 C 1196.729 353.003, 1197.586 354.990, 1198.553 356.058 C 1200.223 357.904, 1201.902 358, 1232.488 358 C 1250.186 358, 1264.935 357.732, 1265.262 357.404 C 1266.003 356.664, 1262.521 350.275, 1259.728 347.250 C 1258.586 346.012, 1258.067 344.993, 1258.576 344.985 C 1259.084 344.976, 1258.974 344.635, 1258.330 344.225 C 1257.687 343.816, 1257.012 342.821, 1256.830 342.014 C 1256.649 341.208, 1255.933 339.938, 1255.241 339.193 C 1254.548 338.448, 1254.214 337.463, 1254.497 337.005 C 1254.781 336.546, 1254.616 336.020, 1254.131 335.835 C 1253.646 335.651, 1251.828 332.670, 1250.091 329.212 C 1248.354 325.753, 1246.547 323.162, 1246.076 323.453 C 1245.605 323.744, 1244.936 322.473, 1244.590 320.629 C 1244.244 318.784, 1243.132 316.524, 1242.119 315.608 C 1241.106 314.691, 1239.471 312.154, 1238.487 309.970 C 1237.502 307.787, 1236.288 306, 1235.789 306 C 1235.290 306, 1235.124 305.608, 1235.420 305.129 C 1235.716 304.650, 1235.068 303.231, 1233.979 301.976 C 1232.891 300.721, 1232 299.173, 1232 298.536 C 1232 297.898, 1231.011 296.315, 1229.802 295.018 C 1228.593 293.720, 1227.540 291.794, 1227.462 290.737 C 1227.384 289.681, 1226.835 288.516, 1226.241 288.149 C 1225.646 287.781, 1225.012 286.810, 1224.830 285.991 C 1224.649 285.171, 1223.713 283.912, 1222.750 283.193 C 1221.787 282.475, 1221 281.205, 1221 280.372 C 1221 279.539, 1220.325 278.182, 1219.500 277.357 C 1218.675 276.532, 1218 274.989, 1218 273.929 C 1218 272.868, 1217.550 272, 1217 272 C 1216.450 272, 1216 271.341, 1216 270.535 C 1216 269.730, 1215.152 268.616, 1214.115 268.062 C 1213.078 267.507, 1211.945 265.916, 1211.596 264.526 C 1211.247 263.137, 1210.494 262, 1209.922 262 C 1209.350 262, 1209.160 261.550, 1209.500 261 C 1209.840 260.450, 1209.641 260, 1209.059 260 C 1208.477 260, 1208 259.255, 1208 258.344 C 1208 257.434, 1206.940 255.296, 1205.644 253.594 C 1204.348 251.892, 1202.968 249.488, 1202.576 248.250 C 1202.185 247.012, 1201.446 246, 1200.933 246 C 1200.420 246, 1200.053 245.662, 1200.118 245.250 C 1200.395 243.497, 1199.913 242.056, 1198.616 240.759 C 1197.855 239.997, 1196.215 237.378, 1194.972 234.937 C 1193.730 232.497, 1191.948 229.825, 1191.013 229 C 1190.078 228.175, 1189.505 226.938, 1189.740 226.251 C 1189.974 225.563, 1189.454 224.728, 1188.583 224.394 C 1187.712 224.059, 1187 222.934, 1187 221.893 C 1187 220.852, 1186.580 220, 1186.067 220 C 1185.554 220, 1184.824 218.988, 1184.443 217.750 C 1184.063 216.512, 1182.908 214.695, 1181.876 213.711 C 1180.844 212.727, 1180 211.040, 1180 209.961 C 1180 207.325, 1176.339 207.357, 1175.500 210 C 1175.151 211.100, 1174.419 212, 1173.874 212 C 1173.328 212, 1173.136 212.412, 1173.447 212.915 C 1173.758 213.418, 1173.672 213.980, 1173.256 214.165 C 1171.876 214.777, 1168 220.894, 1168 222.460 C 1168 223.307, 1167.527 224, 1166.948 224 C 1166.369 224, 1165.425 225.350, 1164.850 227 C 1164.275 228.650, 1163.467 230, 1163.054 230 C 1162.641 230, 1161.492 231.800, 1160.500 234 C 1159.508 236.200, 1158.359 238, 1157.946 238 C 1157.247 238, 1155.040 243.243, 1155.136 244.676 C 1155.160 245.030, 1154.464 245.721, 1153.590 246.210 C 1152.715 246.699, 1152 247.697, 1152 248.427 C 1152 249.158, 1151.325 250.315, 1150.500 251 C 1149.675 251.685, 1149 252.897, 1149 253.694 C 1149 254.491, 1148.309 255.833, 1147.465 256.677 C 1146.271 257.872, 1146.191 258.525, 1147.107 259.629 C 1148.066 260.785, 1147.950 260.918, 1146.477 260.353 C 1145.235 259.876, 1144.897 260.025, 1145.395 260.830 C 1145.793 261.474, 1145.651 262, 1145.079 262 C 1143.859 262, 1140 269.210, 1140 271.492 C 1140 272.356, 1139.328 273.321, 1138.506 273.636 C 1137.684 273.952, 1137.260 274.612, 1137.565 275.105 C 1137.869 275.597, 1137.691 276, 1137.169 276 C 1136.647 276, 1135.248 278.068, 1134.060 280.595 C 1132.872 283.123, 1131.038 286.116, 1129.985 287.247 C 1128.931 288.378, 1128.286 289.654, 1128.551 290.082 C 1128.816 290.511, 1127.900 292.084, 1126.516 293.577 C 1125.132 295.070, 1124 297.126, 1124 298.146 C 1124 299.166, 1123.528 300, 1122.951 300 C 1121.607 300, 1117.946 308.104, 1118.723 309.360 C 1119.045 309.882, 1118.809 310, 1118.197 309.622 C 1117.546 309.219, 1116.388 310.295, 1115.403 312.217 C 1114.478 314.023, 1113.369 315.730, 1112.940 316.010 C 1112.510 316.291, 1110.927 318.991, 1109.422 322.010 C 1107.917 325.030, 1106.194 327.821, 1105.593 328.214 C 1104.992 328.606, 1104.484 329.281, 1104.465 329.714 C 1104.445 330.146, 1103.848 331.548, 1103.138 332.828 C 1102.427 334.109, 1102.092 335.796, 1102.392 336.578 C 1102.717 337.425, 1102.319 338, 1101.410 338 C 1100.569 338, 1100.160 338.450, 1100.500 339 C 1100.899 339.646, 1096.844 340, 1089.059 340 C 1077.789 340, 1077 339.873, 1077 338.059 C 1077 336.991, 1077.457 335.835, 1078.016 335.490 C 1078.575 335.144, 1078.793 334.474, 1078.500 334 C 1078.207 333.526, 1078.432 332.851, 1079 332.500 C 1079.568 332.149, 1079.774 331.443, 1079.457 330.931 C 1079.141 330.419, 1079.359 330, 1079.941 330 C 1080.523 330, 1081 329.410, 1081 328.689 C 1081 327.967, 1081.828 326.488, 1082.840 325.402 C 1083.852 324.316, 1084.567 322.656, 1084.428 321.714 C 1084.290 320.771, 1084.800 320, 1085.561 320 C 1086.873 320, 1091.751 310.339, 1091.241 308.750 C 1091.108 308.337, 1091.632 308, 1092.404 308 C 1093.178 308, 1095.479 304.438, 1097.535 300.057 C 1099.585 295.688, 1101.878 291.877, 1102.631 291.588 C 1103.384 291.299, 1104 290.374, 1104 289.531 C 1104 288.689, 1104.450 288, 1105 288 C 1105.550 288, 1106 287.100, 1106 286 C 1106 284.900, 1106.525 284, 1107.167 284 C 1107.808 284, 1108.055 283.721, 1107.714 283.381 C 1107.374 283.040, 1107.749 282.108, 1108.548 281.310 C 1109.346 280.511, 1110 278.989, 1110 277.929 C 1110 276.849, 1110.686 276, 1111.559 276 C 1112.416 276, 1112.876 275.608, 1112.580 275.129 C 1112.284 274.650, 1112.947 273.214, 1114.054 271.937 C 1115.161 270.661, 1115.834 269.011, 1115.550 268.271 C 1115.266 267.530, 1115.699 266.669, 1116.511 266.357 C 1117.324 266.046, 1117.740 265.388, 1117.435 264.895 C 1117.131 264.403, 1117.584 264, 1118.441 264 C 1119.333 264, 1120 263.145, 1120 262 C 1120 260.900, 1120.420 260, 1120.933 260 C 1121.882 260, 1123.559 256.115, 1123.198 254.750 C 1123.089 254.338, 1123.373 254, 1123.829 254 C 1124.285 254, 1125.712 251.750, 1127 249 C 1128.288 246.250, 1129.660 244, 1130.050 244 C 1130.439 244, 1131.317 242.650, 1132 241 C 1132.683 239.350, 1133.551 238, 1133.928 238 C 1134.305 238, 1136.137 234.850, 1138 231 C 1139.863 227.150, 1141.749 224, 1142.193 224 C 1142.637 224, 1143 223.155, 1143 222.122 C 1143 221.090, 1143.670 219.689, 1144.489 219.009 C 1145.308 218.329, 1145.731 217.374, 1145.430 216.887 C 1145.129 216.399, 1145.385 216, 1146 216 C 1146.615 216, 1146.840 215.550, 1146.500 215 C 1146.160 214.450, 1146.359 214, 1146.941 214 C 1147.523 214, 1148 213.325, 1148 212.500 C 1148 211.675, 1148.438 211, 1148.974 211 C 1150.230 211, 1153.119 205.452, 1152.293 204.627 C 1151.949 204.282, 1152.218 204, 1152.892 204 C 1153.566 204, 1153.840 203.550, 1153.500 203 C 1153.160 202.450, 1153.359 202, 1153.941 202 C 1154.523 202, 1155 201.507, 1155 200.904 C 1155 200.302, 1155.931 198.502, 1157.068 196.904 C 1158.206 195.307, 1158.796 194, 1158.380 194 C 1157.963 194, 1158.541 193.144, 1159.664 192.099 C 1160.870 190.975, 1161.663 189.033, 1161.602 187.349 C 1161.501 184.516, 1161.462 184.499, 1154.500 184.327 C 1150.392 184.225, 1146.573 184.675, 1145.256 185.416 M 728.250 185.663 C 726.462 185.918, 725 186.548, 725 187.063 C 725 187.579, 723.875 188, 722.500 188 C 720.667 188, 720 188.533, 720 190 C 720 191.100, 719.355 192, 718.567 192 C 717.779 192, 716.849 192.900, 716.500 194 C 716.151 195.100, 715.449 196, 714.941 196 C 713.802 196, 708 201.975, 708 203.148 C 708 203.617, 707.325 204, 706.500 204 C 705.675 204, 705 204.358, 705 204.797 C 705 205.954, 701.982 209.742, 698.276 213.235 C 696.502 214.907, 695.292 216.663, 695.585 217.137 C 695.878 217.612, 695.615 218, 695 218 C 694.385 218, 694.160 218.450, 694.500 219 C 694.840 219.550, 694.191 220, 693.059 220 C 691.927 220, 691.053 220.338, 691.118 220.750 C 691.419 222.654, 690.902 224, 689.870 224 C 688.025 224, 680 232.322, 680 234.235 C 680 235.206, 679.518 236, 678.929 236 C 678.339 236, 677.182 236.675, 676.357 237.500 C 675.532 238.325, 675.072 239, 675.335 239 C 675.860 239, 670.657 244.778, 661.750 254.089 C 658.587 257.394, 656 260.527, 656 261.049 C 656 261.572, 655.250 262, 654.333 262 C 653.417 262, 652.930 262.264, 653.252 262.586 C 653.875 263.209, 651.265 266.595, 646.750 271.021 C 645.237 272.503, 644 274.230, 644 274.858 C 644 275.486, 643.475 276, 642.833 276 C 642.192 276, 641.940 276.273, 642.273 276.607 C 642.840 277.173, 642.284 278.072, 639.298 281.416 C 638.636 282.156, 638.374 283.040, 638.714 283.381 C 639.055 283.721, 638.782 284, 638.108 284 C 637.434 284, 637.160 284.450, 637.500 285 C 637.840 285.550, 637.615 286, 637 286 C 636.385 286, 636.160 286.450, 636.500 287 C 636.840 287.550, 636.659 288, 636.098 288 C 635.536 288, 634.598 289.780, 634.012 291.955 C 633.426 294.130, 632.284 296.573, 631.474 297.384 C 630.663 298.194, 630 299.594, 630 300.494 C 630 301.395, 629.567 302.940, 629.039 303.928 C 628.510 304.916, 627.845 307.024, 627.562 308.612 C 627.278 310.201, 626.517 313.750, 625.871 316.500 C 624.064 324.190, 623.615 345.509, 625.186 349.058 C 625.902 350.676, 627.053 352, 627.744 352 C 628.435 352, 629 352.381, 629 352.847 C 629 355.098, 632.961 358.005, 636.117 358.070 C 638.917 358.128, 639.155 358.289, 637.500 359 C 635.896 359.689, 636.242 359.873, 639.250 359.930 C 641.313 359.968, 643 359.550, 643 359 C 643 358.450, 644.200 358, 645.667 358 C 647.133 358, 648.081 357.747, 647.772 357.438 C 647.006 356.673, 651.434 352, 652.924 352 C 653.581 352, 653.864 351.588, 653.553 351.085 C 653.242 350.582, 653.553 349.983, 654.244 349.753 C 655.210 349.431, 655.569 341.667, 655.801 316.080 C 656.067 286.714, 656.281 282.894, 657.633 283.413 C 658.475 283.736, 659.577 284, 660.082 284 C 660.587 284, 661 284.702, 661 285.559 C 661 286.416, 661.450 286.840, 662 286.500 C 662.550 286.160, 663 286.304, 663 286.820 C 663 287.337, 664.688 289.538, 666.750 291.712 C 668.813 293.887, 671.162 296.641, 671.971 297.833 C 672.780 299.025, 673.987 300, 674.653 300 C 675.320 300, 676.151 300.900, 676.500 302 C 676.849 303.100, 677.749 304, 678.500 304 C 679.251 304, 680.122 304.809, 680.436 305.798 C 681.293 308.498, 688.370 315.732, 690.570 316.156 C 691.629 316.360, 692.497 317.281, 692.498 318.202 C 692.499 319.123, 693.513 320.822, 694.750 321.978 C 695.987 323.133, 697 324.510, 697 325.039 C 697 325.568, 697.675 326, 698.500 326 C 699.325 326, 700 326.363, 700 326.807 C 700 328.293, 705.273 334, 706.645 334 C 707.390 334, 708 334.381, 708 334.847 C 708 336.209, 711.625 340, 712.926 340 C 713.582 340, 713.882 340.382, 713.593 340.849 C 713.304 341.316, 714.065 342.612, 715.284 343.729 C 716.503 344.846, 718.563 347.164, 719.863 348.880 C 721.162 350.596, 722.834 352, 723.577 352 C 724.321 352, 725.411 352.900, 726 354 C 726.589 355.100, 727.730 356, 728.535 356 C 729.341 356, 730 356.450, 730 357 C 730 357.550, 731.237 358.007, 732.750 358.015 C 734.893 358.027, 735.169 358.245, 734 359 C 732.985 359.656, 736.387 359.974, 744.513 359.985 C 756.294 360, 756.563 359.950, 758.480 357.397 C 760.522 354.678, 761.348 350, 759.787 350 C 759.289 350, 759.160 349.550, 759.500 349 C 759.840 348.450, 759.609 348, 758.988 348 C 757.622 348, 755 345.508, 755 344.212 C 755 343.699, 753.902 342.456, 752.560 341.448 C 751.218 340.440, 750.341 339.257, 750.612 338.819 C 750.882 338.381, 750.446 338.275, 749.642 338.584 C 748.725 338.936, 747.926 338.343, 747.498 336.992 C 747.122 335.809, 744.156 332.207, 740.907 328.988 C 737.658 325.769, 735 322.607, 735 321.961 C 735 321.261, 734.305 321.053, 733.280 321.446 C 732.335 321.809, 731.855 321.812, 732.214 321.453 C 732.573 321.094, 731.434 319.272, 729.683 317.405 C 727.933 315.538, 725.038 312.446, 723.250 310.534 C 721.462 308.621, 720 306.624, 720 306.096 C 720 305.567, 719.100 304.849, 718 304.500 C 716.900 304.151, 716 303.440, 716 302.921 C 716 302.401, 713.300 299.251, 710 295.920 C 706.700 292.589, 704 289.444, 704 288.932 C 704 288.419, 703.250 288, 702.333 288 C 701.417 288, 700.937 287.730, 701.267 287.400 C 701.949 286.717, 695.529 280, 694.194 280 C 693.714 280, 692.810 278.988, 692.185 277.750 C 691.560 276.512, 689.936 274.142, 688.575 272.482 L 686.102 269.464 688.301 266.677 C 689.510 265.144, 691.737 262.516, 693.250 260.839 C 694.763 259.161, 696 257.386, 696 256.894 C 696 256.402, 696.620 256, 697.379 256 C 698.137 256, 699.317 254.650, 700 253 C 700.683 251.350, 701.838 250, 702.565 250 C 703.292 250, 704.684 248.650, 705.659 247 C 706.634 245.350, 707.979 244, 708.648 244 C 709.318 244, 710.151 243.100, 710.500 242 C 710.849 240.900, 711.578 240, 712.119 240 C 712.661 240, 713.575 238.650, 714.150 237 C 714.841 235.018, 715.873 234, 717.191 234 C 718.346 234, 719.408 233.157, 719.710 232 C 719.998 230.900, 720.657 230, 721.176 230 C 721.694 230, 721.840 229.550, 721.500 229 C 721.160 228.450, 721.553 228, 722.374 228 C 723.194 228, 724.151 227.100, 724.500 226 C 724.849 224.900, 726.004 224, 727.067 224 C 728.776 224, 729.070 223.612, 728.977 221.477 C 728.936 220.534, 733.884 216, 734.955 216 C 735.530 216, 736 215.311, 736 214.469 C 736 213.626, 736.658 212.685, 737.462 212.376 C 738.266 212.068, 739.181 211.005, 739.495 210.016 C 739.809 209.026, 740.997 207.973, 742.134 207.675 C 743.352 207.357, 743.913 206.669, 743.500 206 C 743.091 205.339, 743.613 204.652, 744.751 204.355 C 745.825 204.074, 747.460 202.258, 748.384 200.320 C 749.309 198.382, 750.945 196.566, 752.021 196.284 C 753.097 196.003, 753.750 195.405, 753.472 194.955 C 753.195 194.506, 753.443 193.844, 754.024 193.485 C 755.286 192.705, 754.317 189.174, 752.283 187.140 C 750.788 185.645, 735.120 184.682, 728.250 185.663 M 460.446 251.087 C 460.077 251.685, 460.275 252.675, 460.887 253.287 C 462.352 254.752, 462.321 256.316, 460.845 255.405 C 460.142 254.970, 459.962 255.129, 460.385 255.814 C 460.767 256.432, 461.283 261.789, 461.532 267.719 C 461.781 273.648, 462.417 281.425, 462.945 285 C 463.473 288.575, 464.156 296.426, 464.463 302.448 C 464.770 308.469, 465.404 313.644, 465.871 313.948 C 466.338 314.251, 466.822 317.425, 466.947 321 C 467.071 324.575, 467.327 329.075, 467.515 331 C 468.648 342.583, 468.882 354.955, 467.978 355.513 C 467.422 355.857, 467.184 356.489, 467.450 356.918 C 468.600 358.780, 462.924 362, 458.492 362 C 456.022 362, 454 362.450, 454 363 C 454 363.606, 449.667 364, 443 364 C 436.950 364, 432 364.412, 432 364.915 C 432 365.422, 425.477 365.881, 417.382 365.943 C 409.342 366.005, 401.947 366.493, 400.948 367.028 C 399.949 367.563, 395.727 368, 391.566 368 C 387.189 368, 384 368.421, 384 369 C 384 369.591, 380.212 370.023, 374.750 370.056 C 365.353 370.114, 333.004 373.593, 338.500 373.955 C 340.150 374.064, 342.400 374.345, 343.500 374.580 C 344.600 374.814, 351.575 374.983, 359 374.955 C 366.425 374.927, 374.975 375.013, 378 375.147 C 402.792 376.243, 470.587 374.619, 472.450 372.885 C 472.972 372.398, 474.380 372, 475.578 372 C 480.545 372, 483.370 363.293, 482.684 350.098 C 482.409 344.819, 482.256 332.175, 482.342 322 C 482.429 311.825, 482.415 293.090, 482.311 280.367 C 482.124 257.389, 482.106 257.218, 479.696 254.617 C 478.362 253.178, 476.336 252, 475.194 252 C 474.052 252, 472.840 251.550, 472.500 251 C 471.664 249.647, 461.290 249.722, 460.446 251.087 M 514.628 295.207 C 514.898 295.643, 514.669 296, 514.121 296 C 513.573 296, 513.110 296.788, 513.093 297.750 C 513.076 298.712, 512.571 302.200, 511.971 305.500 C 511.370 308.800, 510.716 313.975, 510.516 317 C 510.317 320.025, 509.865 325.875, 509.512 330 C 509.159 334.125, 508.720 340.506, 508.537 344.180 C 508.354 347.855, 507.945 351.280, 507.628 351.793 C 507.311 352.306, 506.792 355.825, 506.474 359.613 C 506.157 363.401, 505.511 368.075, 505.039 370 C 504.567 371.925, 503.876 377.775, 503.504 383 C 502.710 394.126, 500.515 399.053, 495.235 401.559 C 492.303 402.950, 489.939 403.069, 479.149 402.369 C 472.192 401.917, 465.825 401.632, 465 401.736 C 464.175 401.839, 462.150 401.509, 460.500 401.004 C 458.850 400.498, 454.498 399.965, 450.829 399.819 C 447.160 399.673, 444.374 399.204, 444.638 398.776 C 444.902 398.349, 442.256 398, 438.759 398 C 435.262 398, 431.972 397.591, 431.450 397.092 C 430.928 396.592, 426.450 396.048, 421.500 395.883 C 416.550 395.718, 412.050 395.278, 411.500 394.906 C 410.503 394.231, 401.882 393.241, 390.500 392.493 C 385.171 392.143, 384.891 392.212, 388 393.106 C 389.925 393.660, 392.871 394.534, 394.546 395.048 C 396.222 395.562, 399.901 396.083, 402.723 396.205 C 405.545 396.328, 407.672 396.722, 407.450 397.081 C 406.975 397.850, 417.077 400, 421.167 400 C 422.725 400, 424 400.450, 424 401 C 424 401.550, 425.710 402, 427.800 402 C 429.890 402, 432.027 402.406, 432.550 402.903 C 433.450 403.759, 435.760 404.134, 449.235 405.610 C 452.390 405.956, 454.726 406.635, 454.426 407.119 C 454.127 407.604, 456.159 408, 458.941 408 C 461.723 408, 464 408.450, 464 409 C 464 409.550, 465.827 410, 468.059 410 C 470.510 410, 471.873 410.396, 471.500 411 C 471.124 411.608, 472.590 412, 475.241 412 C 477.638 412, 480.028 412.426, 480.550 412.946 C 481.073 413.467, 483.413 414.005, 485.750 414.142 C 488.087 414.279, 490 414.676, 490 415.024 C 490 415.373, 492.370 415.754, 495.266 415.871 C 499.382 416.037, 501.012 415.638, 502.725 414.042 C 503.930 412.919, 505.310 412, 505.792 412 C 506.273 412, 506.737 411.438, 506.824 410.750 C 507.310 406.887, 507.744 405.277, 508.847 403.250 C 509.520 402.012, 509.717 400.993, 509.285 400.985 C 508.853 400.976, 509.091 400.595, 509.813 400.137 C 510.536 399.678, 511.336 397.773, 511.592 395.902 C 511.983 393.038, 512.850 388.992, 513.500 387 C 514.469 384.029, 515.731 377.500, 516.410 371.944 C 516.582 370.538, 517.173 368.513, 517.723 367.444 C 518.553 365.833, 519.861 358.463, 520.242 353.250 C 520.292 352.563, 520.610 352, 520.949 352 C 521.287 352, 521.666 350.988, 521.792 349.750 C 522.076 346.943, 522.379 345.525, 523.771 340.500 C 524.380 338.300, 524.879 335.375, 524.879 334 C 524.879 330.267, 525.410 327.729, 526.656 325.500 C 527.987 323.121, 529.072 316.731, 529.531 308.569 C 529.935 301.380, 528.287 297.704, 523.676 295.517 C 520.355 293.940, 513.705 293.713, 514.628 295.207 M 752.015 513.750 C 752.024 515.813, 752.467 518.175, 753 519 C 753.694 520.074, 753.974 519.008, 753.985 515.250 C 753.993 512.362, 753.550 510, 753 510 C 752.450 510, 752.007 511.688, 752.015 513.750 M 1088 513.917 C 1088 516.163, 1088.450 518, 1089 518 C 1089.550 518, 1090 516.650, 1090 515 C 1090 513.350, 1090.034 511.674, 1090.075 511.275 C 1090.116 510.876, 1089.666 510.389, 1089.075 510.192 C 1088.425 509.975, 1088 511.449, 1088 513.917 M 1244.750 510.662 C 1245.512 510.970, 1246 513.086, 1246 516.083 C 1246 518.788, 1246.450 521, 1247 521 C 1247.550 521, 1248 518.525, 1248 515.500 C 1248 510.440, 1247.820 510.006, 1245.750 510.079 C 1244.513 510.122, 1244.063 510.385, 1244.750 510.662 M 1214 515.500 C 1214 517.975, 1214.450 520, 1215 520 C 1215.550 520, 1216 517.975, 1216 515.500 C 1216 513.025, 1215.550 511, 1215 511 C 1214.450 511, 1214 513.025, 1214 515.500 M 916 516.559 C 916 519.344, 916.389 520.878, 917 520.500 C 917.550 520.160, 918 518.109, 918 515.941 C 918 513.773, 917.550 512, 917 512 C 916.450 512, 916 514.052, 916 516.559 M 1404 516.500 C 1404 518.975, 1404.450 521, 1405 521 C 1405.550 521, 1406 518.975, 1406 516.500 C 1406 514.025, 1405.550 512, 1405 512 C 1404.450 512, 1404 514.025, 1404 516.500" stroke="none" fill="#507967" fill-rule="evenodd"/><path d="" stroke="none" fill="#000000" fill-rule="evenodd"/><path d="M 566.490 343 C 566.490 445.575, 566.607 487.537, 566.750 436.250 C 566.893 384.962, 566.893 301.037, 566.750 249.750 C 566.607 198.462, 566.490 240.425, 566.490 343 M 888.784 183.738 C 891.689 183.941, 896.189 183.939, 898.784 183.734 C 901.378 183.528, 899 183.363, 893.500 183.365 C 888 183.368, 885.878 183.536, 888.784 183.738 M 1315.811 245.502 C 1315.640 251.828, 1315.838 257.003, 1316.250 257.002 C 1316.662 257.001, 1317 251.825, 1317 245.500 C 1317 239.175, 1316.802 234, 1316.561 234 C 1316.319 234, 1315.981 239.176, 1315.811 245.502 M 623.395 258.500 C 623.396 266.200, 623.553 269.218, 623.743 265.206 C 623.934 261.195, 623.932 254.895, 623.741 251.206 C 623.549 247.518, 623.393 250.800, 623.395 258.500 M 483.458 304.500 C 483.458 327.600, 483.589 336.907, 483.749 325.183 C 483.909 313.458, 483.909 294.558, 483.749 283.183 C 483.588 271.807, 483.457 281.400, 483.458 304.500 M 1316.441 300 C 1316.441 315.675, 1316.579 322.087, 1316.748 314.250 C 1316.917 306.412, 1316.917 293.587, 1316.748 285.750 C 1316.579 277.912, 1316.441 284.325, 1316.441 300 M 815.884 339.288 C 816.320 339.722, 821.137 339.944, 826.588 339.782 L 836.500 339.488 825.796 338.994 C 819.908 338.722, 815.448 338.855, 815.884 339.288 M 1088.500 339 L 1077.500 339.605 1088.191 339.802 C 1094.463 339.918, 1099.137 339.587, 1099.500 339 C 1099.840 338.450, 1099.979 338.089, 1099.809 338.198 C 1099.639 338.306, 1094.550 338.667, 1088.500 339 M 955.750 339.737 C 958.638 339.939, 963.362 339.939, 966.250 339.737 C 969.138 339.535, 966.775 339.370, 961 339.370 C 955.225 339.370, 952.862 339.535, 955.750 339.737 M 1218.784 339.738 C 1221.689 339.941, 1226.189 339.939, 1228.784 339.734 C 1231.378 339.528, 1229 339.363, 1223.500 339.365 C 1218 339.368, 1215.878 339.536, 1218.784 339.738 M 1345.750 358.746 C 1351.388 358.924, 1360.612 358.924, 1366.250 358.746 C 1371.888 358.568, 1367.275 358.422, 1356 358.422 C 1344.725 358.422, 1340.112 358.568, 1345.750 358.746 M 841.250 377.743 C 845.513 377.931, 852.487 377.931, 856.750 377.743 C 861.013 377.556, 857.525 377.402, 849 377.402 C 840.475 377.402, 836.987 377.556, 841.250 377.743 M 915.250 377.739 C 918.413 377.937, 923.587 377.937, 926.750 377.739 C 929.913 377.541, 927.325 377.378, 921 377.378 C 914.675 377.378, 912.087 377.541, 915.250 377.739 M 1259.250 377.735 C 1261.862 377.941, 1266.138 377.941, 1268.750 377.735 C 1271.362 377.529, 1269.225 377.360, 1264 377.360 C 1258.775 377.360, 1256.638 377.529, 1259.250 377.735 M 724.455 426.500 C 724.455 447.950, 724.587 456.583, 724.749 445.684 C 724.911 434.785, 724.910 417.235, 724.748 406.684 C 724.587 396.133, 724.454 405.050, 724.455 426.500 M 814.378 406 C 814.378 412.325, 814.541 414.913, 814.739 411.750 C 814.937 408.587, 814.937 403.413, 814.739 400.250 C 814.541 397.087, 814.378 399.675, 814.378 406 M 1001.389 408.500 C 1001.390 415.650, 1001.550 418.444, 1001.742 414.708 C 1001.935 410.973, 1001.934 405.123, 1001.739 401.708 C 1001.545 398.294, 1001.387 401.350, 1001.389 408.500 M 896.445 431.500 C 896.444 448.550, 896.581 455.666, 896.748 447.312 C 896.915 438.959, 896.915 425.009, 896.748 416.312 C 896.582 407.616, 896.445 414.450, 896.445 431.500 M 1002.374 434.500 C 1002.376 440.550, 1002.541 442.896, 1002.740 439.713 C 1002.939 436.531, 1002.937 431.581, 1002.736 428.713 C 1002.535 425.846, 1002.372 428.450, 1002.374 434.500 M 1153.667 505.667 C 1152.438 506.896, 1152.935 518.840, 1154.250 519.691 C 1155.048 520.207, 1154.053 520.720, 1151.500 521.108 L 1147.500 521.716 1151.191 521.858 C 1154.860 521.999, 1156.959 520.711, 1155.016 519.510 C 1154.457 519.165, 1154 515.935, 1154 512.334 C 1154 506.827, 1154.247 505.881, 1155.552 506.382 C 1156.442 506.723, 1156.843 506.555, 1156.493 505.989 C 1155.786 504.844, 1154.622 504.712, 1153.667 505.667 M 665.157 513.128 C 665.050 516.296, 665.504 518.173, 666.597 519.080 C 668.047 520.284, 668.024 520.473, 666.347 521.133 C 665.051 521.643, 664.947 521.876, 666 521.914 C 666.825 521.945, 668.175 521.533, 669 521 C 670.333 520.138, 670.333 520.027, 669 520 C 667.667 519.973, 667.667 519.855, 669 518.943 C 670.236 518.098, 670.147 517.968, 668.500 518.208 C 666.790 518.458, 666.414 517.774, 665.907 513.500 L 665.314 508.500 665.157 513.128 M 989.667 511.667 C 988.440 512.894, 988.983 517.741, 990.487 518.989 C 993.595 521.569, 996.542 517.697, 994.883 513.213 C 994.107 511.115, 991.108 510.226, 989.667 511.667 M 1331.317 512.617 C 1330.318 515.220, 1332.303 519.500, 1334.510 519.500 C 1336.695 519.500, 1337.499 517.125, 1336.570 513.421 C 1335.867 510.620, 1332.293 510.073, 1331.317 512.617 M 925 515.831 C 925 518.837, 925.510 519.935, 927.369 520.930 C 928.671 521.627, 930.584 521.980, 931.619 521.715 C 933.052 521.347, 932.903 521.204, 930.993 521.116 C 928.648 521.008, 928.509 520.708, 928.843 516.500 C 929.163 512.481, 928.977 512, 927.101 512 C 925.332 512, 925 512.605, 925 515.831 M 957.709 512.624 C 955.281 515.053, 958.444 520.811, 961.551 519.619 C 963.995 518.681, 963.096 512.585, 960.459 512.208 C 959.336 512.047, 958.099 512.235, 957.709 512.624 M 1242.157 516.500 C 1242.491 520.708, 1242.352 521.008, 1240.007 521.116 C 1238.097 521.204, 1237.948 521.347, 1239.381 521.715 C 1240.416 521.980, 1242.329 521.627, 1243.631 520.930 C 1245.490 519.935, 1246 518.837, 1246 515.831 C 1246 512.605, 1245.668 512, 1243.899 512 C 1242.023 512, 1241.837 512.481, 1242.157 516.500 M 1400.241 516.446 C 1400.714 520.639, 1400.593 520.913, 1398.121 521.256 C 1396.679 521.456, 1398.200 521.614, 1401.500 521.606 C 1404.800 521.599, 1406.598 521.443, 1405.496 521.259 C 1403.774 520.972, 1403.542 520.297, 1403.846 516.463 C 1404.169 512.407, 1403.998 512, 1401.971 512 C 1399.922 512, 1399.781 512.364, 1400.241 516.446" stroke="none" fill="#e9eceb" fill-rule="evenodd"/><path d="M 565 345.441 C 565 467.990, 564.661 531.092, 564 531.500 C 562.489 532.434, 562.802 534, 564.500 534 C 565.828 534, 566 512.556, 566 347 C 566 244.150, 565.775 160, 565.500 160 C 565.225 160, 565 243.448, 565 345.441 M 418.500 234.998 C 409.150 235.991, 394.300 237.309, 385.500 237.928 C 376.700 238.547, 352.625 240.665, 332 242.634 C 311.375 244.603, 291.350 246.426, 287.500 246.685 C 278.104 247.318, 267.279 249.587, 264.279 251.553 C 258.895 255.080, 258.005 261.838, 260.467 280.500 C 261.265 286.550, 262.179 297.575, 262.498 305 C 263.400 326.012, 265.858 352.036, 267.558 358.569 C 269.433 365.774, 271.122 368.494, 275.304 371.044 C 279.672 373.707, 284.260 373.609, 324.500 369.989 C 343.200 368.307, 364.125 366.477, 371 365.922 C 377.875 365.367, 394.075 363.818, 407 362.480 C 419.925 361.142, 434.810 359.600, 440.077 359.054 C 458.562 357.138, 461.500 354.756, 461.500 341.679 C 461.500 337.181, 460.948 328.325, 460.274 322 C 459.599 315.675, 458.844 307.350, 458.595 303.500 C 456.951 278.117, 453.670 247.387, 452.113 242.807 C 448.973 233.569, 443.638 232.330, 418.500 234.998 M 336.753 254.923 C 334.693 255.342, 332.181 256.431, 331.172 257.344 C 330.163 258.257, 328.965 258.666, 328.509 258.252 C 328.052 257.838, 328.005 258.066, 328.403 258.757 C 328.819 259.480, 328.501 260.254, 327.653 260.580 C 324.885 261.642, 317.907 272.202, 314.442 280.573 C 309.253 293.106, 308.060 307.348, 311.621 314.233 C 314.269 319.355, 315 317.307, 315.006 304.750 C 315.012 290.384, 315.848 286.775, 321.091 278.474 C 325.077 272.162, 334.834 262.101, 337.190 261.874 C 342.331 261.378, 344.142 261.747, 349.204 264.325 C 355.021 267.287, 363 273.467, 363 275.010 C 363 275.480, 359.369 278.024, 354.930 280.664 C 342.425 288.103, 336.329 297.131, 335.253 309.806 C 334.694 316.391, 336.777 325.865, 339.914 331 C 342.752 335.646, 349.355 343.060, 351.935 344.498 C 362.623 350.456, 368 352.297, 368 350 C 368 349.438, 370.780 349, 374.341 349 C 380.768 349, 396.253 347.322, 399 346.328 C 402.575 345.035, 395.657 344.222, 379.846 344.077 C 368.500 343.974, 363.075 344.276, 362.825 345.025 C 362.300 346.599, 358.156 344.779, 354.634 341.430 C 351.945 338.872, 346 330.323, 346 329.014 C 346 328.154, 370.075 328.485, 372.750 329.381 C 374.730 330.044, 374.999 329.797, 374.994 327.317 C 374.980 319.955, 369.127 310.085, 364.677 309.918 C 362.911 309.852, 363.129 309.562, 365.835 308.381 C 368.835 307.071, 374.543 306.178, 380.750 306.047 C 383.704 305.985, 383.641 303.770, 380.535 298.470 C 379.179 296.156, 378.392 293.907, 378.785 293.471 C 379.178 293.036, 379.032 292.944, 378.461 293.269 C 377.889 293.593, 375.459 292.540, 373.060 290.929 C 370.661 289.318, 368.317 288, 367.850 288 C 367.382 288, 367 287.563, 367 287.029 C 367 285.482, 372.966 284.240, 379.750 284.376 C 383.393 284.448, 386 284.077, 386 283.485 C 386 281.081, 381.415 274.131, 376.855 269.622 C 374.142 266.940, 372.112 264.555, 372.344 264.322 C 372.577 264.090, 379.457 263.476, 387.634 262.959 C 418.014 261.035, 421 260.680, 421 258.992 C 421 256.537, 371.880 256.731, 366.444 259.207 C 364.494 260.096, 362.987 259.826, 358.276 257.743 C 351.963 254.952, 342.630 253.729, 336.753 254.923 M 337.484 274.750 C 327.915 284.576, 322.866 297.995, 323.559 311.760 C 323.957 319.650, 326.054 330.085, 327.111 329.431 C 327.600 329.129, 328.016 323.846, 328.035 317.691 C 328.054 311.536, 328.654 303.780, 329.368 300.456 C 330.925 293.204, 337.861 281.085, 342.767 277.040 C 345.645 274.668, 346.144 273.710, 345.610 271.582 C 345.253 270.162, 344.539 269, 344.023 269 C 343.506 269, 340.564 271.587, 337.484 274.750 M 488 321.944 L 488 374.888 485.587 377.694 L 483.174 380.500 426.337 381.020 C 395.077 381.306, 371.190 381.644, 373.257 381.770 C 375.323 381.897, 381.398 382.658, 386.757 383.462 C 402.549 385.831, 429.879 389.057, 438.500 389.569 C 442.900 389.830, 454.570 390.962, 464.434 392.084 C 474.298 393.206, 483.523 393.856, 484.934 393.528 C 489.580 392.447, 493.914 389.625, 494.894 387.041 C 496.130 383.782, 499.378 359.924, 501.979 335 C 503.098 324.275, 504.951 309.352, 506.096 301.837 C 508.571 285.594, 507.860 279.243, 502.998 274.155 C 500.169 271.195, 494.777 269.017, 490.250 269.006 L 488 269 488 321.944 M 397.250 273.779 C 389.962 273.932, 384 274.454, 384 274.939 C 384 276.993, 397.624 278.150, 409.124 277.072 C 415.381 276.486, 421.400 275.992, 422.500 275.973 C 424.107 275.946, 424.205 275.775, 423 275.102 C 420.834 273.895, 412.386 273.460, 397.250 273.779 M 388.686 287.670 C 385.547 287.960, 384.011 288.530, 384.273 289.307 C 384.565 290.175, 389.872 290.500, 403.755 290.500 C 420.704 290.500, 425.383 290.049, 423.894 288.561 C 423.229 287.896, 394.186 287.161, 388.686 287.670 M 355.097 293.649 C 349.712 298.258, 345.002 306.411, 345.073 311 C 345.118 313.918, 345.268 314.152, 345.974 312.405 C 346.953 309.983, 352.432 305.507, 359.243 301.564 C 363.758 298.950, 363.914 298.716, 362.493 296.687 C 361.672 295.514, 361 293.782, 361 292.837 C 361 289.768, 359.369 289.992, 355.097 293.649 M 358.713 312.250 C 356.071 314.738, 352.511 319.894, 353.115 320.359 C 353.327 320.522, 355.413 320.257, 357.750 319.769 C 361.979 318.887, 362 318.860, 362 314.441 C 362 311.999, 361.798 310, 361.552 310 C 361.305 310, 360.028 311.012, 358.713 312.250 M 376.965 323.542 C 374.664 326.315, 377.418 327.509, 385.857 327.397 C 393.815 327.291, 404.474 324.577, 403.449 322.917 C 403.137 322.413, 397.339 322, 390.563 322 C 380.683 322, 377.992 322.305, 376.965 323.542 M 1199.654 358.250 C 1199.909 358.663, 1215.241 359, 1233.726 359 C 1252.210 359, 1267.096 358.763, 1266.806 358.473 C 1265.971 357.637, 1199.139 357.415, 1199.654 358.250 M 1074.500 377.615 C 1061.748 378.500, 1044.337 380.135, 1042.812 380.591 C 1040.800 381.192, 1038.611 387.198, 1039.445 389.826 C 1039.769 390.848, 1041.152 392.734, 1042.518 394.017 C 1044.733 396.097, 1046.197 396.400, 1056.014 396.804 C 1066.883 397.252, 1067.036 397.292, 1067.763 399.879 C 1068.551 402.680, 1068.594 415.299, 1067.920 445 C 1067.478 464.476, 1067.963 467.234, 1072.487 470.989 C 1074.580 472.726, 1082.420 472.726, 1084.513 470.989 C 1089.173 467.122, 1089.361 465.455, 1089.104 430.363 L 1088.861 397.226 1099.890 396.849 C 1110.894 396.472, 1110.927 396.463, 1114.459 393.039 C 1118.698 388.931, 1119.198 384.831, 1115.736 382.563 C 1110.373 379.049, 1089.658 376.563, 1074.500 377.615 M 737 378.968 C 729.477 379.921, 728.394 380.557, 726.578 385.097 C 725.241 388.439, 725 394.659, 725 425.871 C 725 460.938, 725.632 469.964, 727.985 468.510 C 728.419 468.241, 728.712 468.773, 728.637 469.692 C 728.462 471.831, 734.916 473.338, 739.345 472.191 C 743.914 471.008, 744.968 468.028, 744.985 456.250 L 745 446 748.918 446 C 754.728 446, 755.437 446.493, 762.372 455.357 C 774.685 471.094, 778.193 473.711, 785.116 472.327 C 788.172 471.716, 792 467.388, 792 464.546 C 792 461.818, 788.976 456.810, 783.850 451.050 C 779.349 445.992, 777.647 442, 779.992 442 C 781.299 442, 785.333 438.679, 791.559 432.477 C 797.320 426.737, 799.547 420.940, 799.424 412 C 799.223 397.356, 788.287 383.687, 774.243 380.527 C 767.269 378.958, 744.576 378.008, 737 378.968 M 828.235 379.035 C 824.239 379.454, 820.354 380.034, 819.603 380.322 C 818.851 380.611, 817.621 383.244, 816.868 386.173 C 814.979 393.530, 815.522 463.893, 817.506 468.656 C 818.772 471.699, 819.094 471.838, 826.441 472.527 C 830.632 472.919, 843.975 473.056, 856.092 472.830 C 873.600 472.504, 878.301 472.132, 878.990 471.015 C 880.199 469.060, 879.728 458.328, 878.374 456.974 C 877.670 456.270, 869.672 455.646, 856.597 455.276 L 835.933 454.690 836.217 444.706 L 836.500 434.722 847.112 434.749 C 860.323 434.782, 862.327 434.400, 865.476 431.252 C 870.140 426.587, 867.994 419.926, 861.221 418.044 C 859.174 417.476, 852.663 417.009, 846.750 417.006 L 836 417 836 407 L 836 397 853.750 396.944 C 873.595 396.880, 877.736 396.047, 879.817 391.699 C 881.597 387.981, 879.528 380.862, 876.500 380.287 C 864.760 378.059, 842.922 377.492, 828.235 379.035 M 908 378.857 C 902.463 380.080, 899.947 381.885, 898.281 385.830 C 896.966 388.944, 896.760 394.881, 896.921 425 C 897.108 459.989, 897.635 466.481, 900.615 470.500 C 902.021 472.397, 903.188 472.494, 923.299 472.386 C 936.646 472.315, 946.167 471.816, 949 471.040 C 955.262 469.325, 967.368 463.632, 969.690 461.310 C 970.752 460.248, 972.494 458.731, 973.561 457.939 C 976.655 455.643, 985.301 442.078, 984.810 440.291 C 984.690 439.856, 985.192 437.085, 985.924 434.134 C 988.315 424.495, 985.725 410.052, 980.265 402.574 C 971.669 390.802, 959.675 382.927, 946.500 380.405 C 938.066 378.790, 912.886 377.778, 908 378.857 M 1010.028 379.306 C 1007.194 380.281, 1006.193 381.419, 1004.582 385.500 C 1002.741 390.163, 1002.610 392.963, 1002.646 427 C 1002.683 462.613, 1002.737 463.604, 1004.886 467.797 L 1007.088 472.093 1013.285 471.797 C 1018.773 471.534, 1019.619 471.213, 1020.679 468.992 C 1022.724 464.710, 1024.056 450.005, 1023.441 438.500 C 1023.118 432.450, 1022.770 418.050, 1022.670 406.500 C 1022.471 383.753, 1022.137 382.156, 1017.020 379.510 C 1015.414 378.680, 1013.964 378.025, 1013.800 378.056 C 1013.635 378.087, 1011.938 378.650, 1010.028 379.306 M 1251.800 378.963 C 1245.933 380.033, 1245.370 380.388, 1243.329 384.313 C 1241.867 387.126, 1241.679 392.049, 1241.730 426.227 C 1241.784 462.246, 1241.920 465.178, 1243.667 468.169 C 1246.941 473.776, 1256.254 474.219, 1260.184 468.955 C 1261.663 466.974, 1262.039 464.515, 1262.125 456.250 C 1262.231 446.108, 1262.258 446, 1264.648 446 C 1269.075 446, 1273.455 448.639, 1278.083 454.096 C 1280.604 457.068, 1283.079 460.237, 1283.583 461.138 C 1284.088 462.039, 1286.491 464.927, 1288.924 467.555 C 1293.239 472.215, 1293.494 472.333, 1299.222 472.333 C 1305.662 472.333, 1307.735 471.087, 1308.092 467 C 1308.542 461.854, 1307.899 459.999, 1304.038 455.311 C 1293.688 442.745, 1294.372 443.923, 1296.549 442.417 C 1297.622 441.675, 1298.950 440.703, 1299.500 440.256 C 1300.050 439.809, 1302.306 438.156, 1304.513 436.582 C 1309.477 433.041, 1315.236 424.358, 1314.680 421.250 C 1314.458 420.012, 1314.665 419, 1315.139 419 C 1316.258 419, 1316.208 408.601, 1315.064 403.673 C 1313.434 396.650, 1304.490 386.395, 1296.375 382.245 C 1290.902 379.446, 1261.165 377.257, 1251.800 378.963 M 1365.500 378.746 C 1360.067 379.190, 1351.552 381.207, 1348.500 382.771 C 1335.924 389.217, 1329.680 403.118, 1334.345 414.283 C 1336.424 419.259, 1342.421 425.547, 1347.314 427.879 C 1353.702 430.925, 1362.280 433.999, 1364.392 433.999 C 1369.185 434.001, 1379.684 438.140, 1383.250 441.434 C 1387.784 445.622, 1387.919 447.339, 1384.001 450.999 C 1376.819 457.708, 1361.678 457.213, 1353.500 450.003 C 1350.720 447.551, 1344.069 445.310, 1343.195 446.529 C 1342.813 447.063, 1341.827 447.649, 1341.003 447.832 C 1338.006 448.498, 1337 450.337, 1337 455.154 C 1337 458.586, 1337.449 460.235, 1338.494 460.636 C 1339.316 460.952, 1339.768 461.567, 1339.498 462.003 C 1338.921 462.936, 1346.800 468.157, 1352.512 470.628 C 1357.872 472.946, 1380.769 473.225, 1386 471.035 C 1391.544 468.714, 1397.633 464.256, 1400.772 460.220 C 1404.845 454.981, 1405.038 454.557, 1405.660 449.478 C 1407.706 432.776, 1398.309 423.501, 1373.166 417.407 C 1355.676 413.168, 1349.231 407.790, 1354.148 401.539 C 1356.739 398.245, 1361.781 396.799, 1370.560 396.834 C 1376.298 396.856, 1378.628 397.309, 1380.749 398.814 C 1390.491 405.725, 1397.337 406.930, 1400.927 402.365 C 1403.417 399.200, 1403.526 396.911, 1401.401 392.433 C 1399.471 388.365, 1390.463 382.118, 1384.630 380.802 C 1378.885 379.505, 1369.085 378.452, 1365.500 378.746 M 661.213 380.578 C 649.763 383.086, 636.189 392.580, 629.919 402.466 C 624.742 410.630, 623.036 416.195, 622.908 425.345 C 622.773 434.904, 624.940 441.550, 631.324 451.169 C 638.929 462.626, 654.105 471.276, 668.500 472.359 C 680.264 473.243, 691.914 471.777, 698.228 468.619 C 706.417 464.523, 707.233 463.626, 707.760 458.151 C 708.150 454.087, 707.864 452.864, 706.116 451.116 C 703.095 448.095, 697.225 448.337, 690.732 451.750 C 686.037 454.218, 684.474 454.500, 675.500 454.500 C 666.007 454.500, 665.211 454.333, 659.791 451.200 C 641.629 440.702, 637.669 420.467, 651.135 406.970 C 653.685 404.415, 657.899 401.077, 660.500 399.553 C 665 396.916, 665.720 396.802, 675.364 397.200 C 683.291 397.527, 686.590 398.129, 690.500 399.960 C 693.250 401.247, 697.455 402.346, 699.844 402.400 C 703.532 402.485, 704.552 402.046, 706.589 399.500 C 707.910 397.850, 708.991 395.600, 708.991 394.500 C 708.993 392.001, 705.412 386, 703.919 386 C 703.308 386, 701.551 385.104, 700.013 384.009 C 693.658 379.484, 674.102 377.755, 661.213 380.578 M 1160.385 380.519 C 1148.820 382.636, 1136.412 389.887, 1130.154 398.186 C 1124.904 405.148, 1121 416.743, 1121 425.375 C 1121 434.373, 1124.936 446.475, 1129.910 452.767 C 1135.128 459.369, 1140.398 463.370, 1149.693 467.789 L 1157.500 471.500 1173.596 471.500 C 1185.769 471.500, 1190.096 471.165, 1191.346 470.128 C 1192.256 469.373, 1193 469.040, 1193 469.389 C 1193 469.737, 1196.487 468.251, 1200.750 466.087 C 1210.617 461.077, 1216.590 455.251, 1221.381 445.964 C 1224.993 438.962, 1225.190 438.093, 1225.324 428.547 C 1225.486 416.990, 1224.774 412.357, 1221.950 406.604 C 1218.264 399.093, 1217.111 397.425, 1212.863 393.448 C 1200.008 381.416, 1181.028 376.740, 1160.385 380.519 M 745.657 402.170 C 745.305 405.101, 745.013 412.113, 745.009 417.750 L 745 428 753.053 428 C 757.482 428, 764.141 427.310, 767.851 426.466 C 774.003 425.066, 774.836 424.564, 777.299 420.765 C 782.086 413.383, 780.313 405.255, 772.681 399.592 C 770.271 397.804, 768.150 397.452, 758.079 397.170 L 746.298 396.839 745.657 402.170 M 917 425.525 L 917 454.050 919.565 455.025 C 922.891 456.289, 930.825 456.235, 939 454.892 C 942.575 454.304, 946.266 453.767, 947.202 453.698 C 948.139 453.628, 948.702 453.368, 948.454 453.120 C 948.206 452.872, 950.240 451.391, 952.975 449.829 C 955.710 448.267, 958.931 445.659, 960.133 444.034 C 961.335 442.408, 962.809 441.358, 963.409 441.700 C 964.009 442.041, 964.214 442, 963.866 441.609 C 963.517 441.218, 964.079 438.666, 965.116 435.938 C 966.152 433.210, 967 428.898, 967 426.355 C 967 421.750, 965.204 413.951, 963.925 413 C 963.554 412.725, 962.372 411.044, 961.296 409.265 C 959.048 405.546, 954.391 401.911, 948.167 399.016 C 944.501 397.310, 941.769 397, 930.417 397 L 917 397 917 425.525 M 1158.647 399.121 C 1153.328 401.927, 1146.825 408.665, 1144.198 414.092 C 1141.589 419.480, 1141.146 432.020, 1143.375 437.355 C 1146.856 445.685, 1155.832 452.239, 1166.932 454.553 C 1175.040 456.243, 1181.318 455.393, 1188.829 451.587 C 1196.181 447.861, 1199.568 444.552, 1202.942 437.800 C 1207.166 429.346, 1207.199 421.717, 1203.045 413.410 C 1201.420 410.159, 1199.128 406.825, 1197.952 406 C 1196.776 405.175, 1194.623 403.493, 1193.167 402.262 C 1188.772 398.546, 1182.506 396.996, 1172.072 397.044 C 1164.439 397.079, 1161.720 397.500, 1158.647 399.121 M 1262.210 412.500 L 1262.166 428 1271.217 428 C 1276.195 428, 1282.120 427.465, 1284.384 426.811 C 1288.212 425.706, 1294.897 421.015, 1295.135 419.267 C 1295.193 418.845, 1295.660 417.395, 1296.173 416.045 C 1297.545 412.436, 1296.181 406.369, 1293.203 402.829 C 1289.218 398.094, 1285.458 397, 1273.159 397 L 1262.254 397 1262.210 412.500 M 1152.009 508.500 C 1151.863 509.050, 1151.637 510.400, 1151.505 511.500 C 1151.373 512.600, 1150.792 515.188, 1150.213 517.250 C 1149.229 520.757, 1149.302 521, 1151.338 521 C 1153.310 521, 1153.486 520.554, 1153.215 516.250 C 1152.841 510.327, 1152.354 507.192, 1152.009 508.500 M 663.667 509.667 C 661.632 511.701, 663.751 521, 666.249 521 C 666.985 521, 666.833 520.405, 665.846 519.418 C 664.698 518.269, 664.401 516.626, 664.762 513.418 C 665.249 509.102, 665.019 508.315, 663.667 509.667 M 758.851 513.666 C 759.303 519.262, 760.561 519.262, 760.851 513.667 C 761.005 510.683, 760.674 509.333, 759.787 509.333 C 758.882 509.333, 758.604 510.617, 758.851 513.666 M 927.565 509.895 C 927.260 510.388, 927.729 511.066, 928.606 511.402 C 929.819 511.868, 930.115 513.090, 929.843 516.507 C 929.594 519.638, 929.867 521, 930.743 521 C 932.294 521, 932.455 513.718, 930.965 510.934 C 929.858 508.865, 928.464 508.440, 927.565 509.895 M 1272.704 510.729 C 1271.639 512.373, 1273.668 516, 1275.652 516 C 1276.801 516, 1277.102 516.686, 1276.754 518.509 C 1276.365 520.539, 1276.534 520.802, 1277.637 519.886 C 1279.745 518.136, 1279.253 516.102, 1276.557 515.425 C 1274.856 514.998, 1274.021 514.005, 1273.807 512.156 C 1273.606 510.412, 1273.227 509.922, 1272.704 510.729 M 883.558 515.250 C 881.789 521.073, 881.819 521.119, 887.321 520.799 C 891.594 520.552, 892.532 520.156, 892.777 518.500 C 893.048 516.672, 892.980 516.650, 891.987 518.250 C 891.295 519.365, 889.657 520, 887.475 520 C 884.203 520, 884.077 519.866, 884.650 517 C 885.227 514.113, 884.336 512.686, 883.558 515.250" stroke="none" fill="#5e6d66" fill-rule="evenodd"/></svg>